M48
; DRILL file {KiCad (5.1.10-1-10_14)} date Friday, January 14, 2022 at 08:56:22 AM
; FORMAT={-:-/ absolute / inch / decimal}
; #@! TF.CreationDate,2022-01-14T08:56:22-05:00
; #@! TF.GenerationSoftware,Kicad,Pcbnew,(5.1.10-1-10_14)
FMAT,2
INCH
T1C0.0079
T2C0.0118
T3C0.0157
T4C0.0197
T5C0.0276
T6C0.0315
T7C0.0394
T8C0.1260
T9C0.0394
T10C0.0454
T11C0.1122
%
G90
G05
T1
X2.72Y-1.565
X2.72Y-1.765
X2.72Y-1.965
X2.72Y-2.165
X2.72Y-2.365
X2.72Y-2.565
X2.72Y-2.765
X2.72Y-2.965
X2.72Y-3.165
X2.72Y-3.4
X2.72Y-3.635
X2.72Y-3.835
X2.72Y-4.035
X2.72Y-4.235
X2.72Y-4.435
X2.72Y-4.635
X2.72Y-4.835
X2.72Y-5.035
X2.72Y-5.235
X2.8051Y-4.8425
X2.8051Y-4.9173
X2.8051Y-5.0591
X2.86Y-1.425
X2.86Y-5.375
X2.915Y-2.92
X2.955Y-4.39
X2.96Y-4.44
X2.975Y-4.355
X2.9825Y-2.78
X2.9825Y-2.8375
X2.9825Y-3.13
X2.9825Y-3.1875
X2.9825Y-3.48
X2.9825Y-3.5375
X2.9825Y-3.83
X2.9825Y-3.8875
X2.9825Y-4.18
X2.9825Y-4.2375
X2.9825Y-4.53
X2.9825Y-4.5875
X3.005Y-4.435
X3.025Y-3.63
X3.06Y-5.375
X3.07Y-3.74
X3.095Y-4.805
X3.1Y-2.83
X3.1Y-3.18
X3.1Y-3.53
X3.1Y-3.62
X3.1Y-3.88
X3.1Y-3.965
X3.1Y-4.23
X3.1Y-4.32
X3.1Y-4.58
X3.1375Y-3.245
X3.14Y-4.605
X3.15Y-3.075
X3.15Y-3.53
X3.15Y-3.88
X3.15Y-4.475
X3.155Y-3.965
X3.175Y-3.38
X3.1825Y-3.42
X3.185Y-3.2575
X3.1975Y-3.575
X3.2Y-2.61
X3.2Y-3.075
X3.205Y-3.885
X3.22Y-4.095
X3.2375Y-4.79
X3.2475Y-3.395
X3.25Y-2.725
X3.25Y-3.075
X3.25Y-3.27
X3.25Y-3.62
X3.25Y-3.97
X3.25Y-4.425
X3.25Y-5.05
X3.26Y-5.375
X3.275Y-4.11
X3.28Y-3.5925
X3.3Y-3.53
X3.3Y-4.075
X3.3Y-4.32
X3.3Y-4.58
X3.31Y-3.9
X3.32Y-4.915
X3.3325Y-3.385
X3.35Y-3.27
X3.35Y-3.53
X3.35Y-3.62
X3.35Y-4.2375
X3.35Y-4.58
X3.35Y-5.05
X3.37Y-3.5675
X3.375Y-3.77
X3.4Y-2.725
X3.4Y-4.58
X3.415Y-2.54
X3.45Y-5.05
X3.45Y-5.15
X3.46Y-5.375
X3.475Y-3.285
X3.48Y-3.615
X3.485Y-3.695
X3.485Y-4.065
X3.495Y-3.955
X3.495Y-4.7
X3.495Y-4.765
X3.505Y-2.61
X3.505Y-2.8
X3.505Y-2.92
X3.505Y-4.395
X3.515Y-3.36
X3.525Y-4.465
X3.53Y-3.685
X3.535Y-4.8625
X3.55Y-5.05
X3.55Y-5.15
X3.575Y-3.18
X3.575Y-3.53
X3.575Y-3.88
X3.575Y-4.23
X3.575Y-4.58
X3.625Y-3.18
X3.625Y-3.62
X3.625Y-3.97
X3.625Y-4.58
X3.625Y-4.67
X3.6312Y-5.05
X3.65Y-5.16
X3.66Y-5.375
X3.6688Y-5.05
X3.669Y-4.941
X3.675Y-3.18
X3.675Y-3.53
X3.675Y-4.7825
X3.719Y-4.941
X3.725Y-3.425
X3.725Y-3.725
X3.75Y-5.05
X3.75Y-5.15
X3.769Y-4.941
X3.775Y-3.53
X3.775Y-3.62
X3.775Y-4.58
X3.775Y-4.67
X3.8Y-4.8
X3.8Y-4.85
X3.819Y-4.941
X3.825Y-3.62
X3.8312Y-5.05
X3.85Y-5.16
X3.86Y-5.375
X3.865Y-1.635
X3.8688Y-5.05
X3.869Y-4.941
X3.875Y-3.53
X3.9Y-1.67
X3.9Y-3.58
X3.919Y-4.941
X3.9312Y-5.05
X3.95Y-5.16
X3.9688Y-5.05
X3.995Y-4.1125
X4.02Y-2.83
X4.02Y-3.43
X4.04Y-4.1125
X4.05Y-2.175
X4.05Y-3.975
X4.05Y-4.575
X4.05Y-5.05
X4.05Y-5.15
X4.06Y-5.375
X4.1Y-2.175
X4.1Y-2.895
X4.1Y-3.005
X4.1Y-3.725
X4.1Y-4.205
X4.1Y-4.325
X4.1Y-4.54
X4.125Y-4.575
X4.15Y-2.895
X4.15Y-3.005
X4.15Y-3.725
X4.15Y-4.205
X4.15Y-4.325
X4.15Y-4.54
X4.15Y-5.05
X4.15Y-5.15
X4.175Y-4.575
X4.2Y-2.895
X4.2Y-3.005
X4.2Y-3.725
X4.2Y-4.205
X4.2Y-4.325
X4.2Y-4.54
X4.225Y-4.575
X4.25Y-2.895
X4.25Y-3.005
X4.25Y-3.725
X4.25Y-4.205
X4.25Y-4.325
X4.25Y-4.54
X4.25Y-5.05
X4.25Y-5.15
X4.26Y-5.375
X4.275Y-4.575
X4.3Y-2.895
X4.3Y-3.005
X4.3Y-3.725
X4.3Y-4.205
X4.3Y-4.325
X4.325Y-4.575
X4.3312Y-5.05
X4.35Y-2.895
X4.35Y-3.005
X4.35Y-3.725
X4.35Y-4.205
X4.35Y-4.325
X4.35Y-5.16
X4.3688Y-5.05
X4.369Y-4.941
X4.375Y-4.575
X4.4Y-2.895
X4.4Y-3.005
X4.4Y-3.725
X4.4Y-4.205
X4.4Y-4.325
X4.419Y-4.941
X4.425Y-4.09
X4.425Y-4.575
X4.4312Y-5.05
X4.45Y-2.895
X4.45Y-3.005
X4.45Y-3.725
X4.45Y-4.205
X4.45Y-4.325
X4.45Y-5.16
X4.46Y-5.375
X4.4688Y-5.05
X4.469Y-4.941
X4.5Y-1.925
X4.5Y-2.525
X4.5Y-3.005
X4.5Y-3.125
X4.5Y-3.725
X4.5Y-4.205
X4.5Y-4.325
X4.519Y-4.941
X4.5312Y-5.05
X4.55Y-5.16
X4.5688Y-5.05
X4.569Y-4.941
X4.575Y-4.535
X4.5875Y-4.115
X4.59Y-4.495
X4.5925Y-4.3725
X4.5925Y-4.4225
X4.619Y-4.941
X4.62Y-2.83
X4.62Y-3.43
X4.6275Y-4.115
X4.6312Y-5.05
X4.65Y-2.175
X4.65Y-3.975
X4.65Y-4.575
X4.65Y-4.69
X4.65Y-5.16
X4.66Y-5.375
X4.6688Y-5.05
X4.669Y-4.941
X4.695Y-4.42
X4.7Y-2.895
X4.7Y-3.005
X4.7Y-3.725
X4.7Y-4.205
X4.7Y-4.325
X4.705Y-4.9
X4.719Y-4.941
X4.725Y-4.575
X4.7312Y-5.05
X4.75Y-2.895
X4.75Y-3.005
X4.75Y-3.725
X4.75Y-4.205
X4.75Y-4.325
X4.75Y-5.16
X4.755Y-4.9
X4.765Y-1.425
X4.7688Y-5.05
X4.769Y-4.941
X4.775Y-4.575
X4.8Y-2.895
X4.8Y-3.005
X4.8Y-3.725
X4.8Y-4.205
X4.8Y-4.325
X4.819Y-4.941
X4.825Y-4.575
X4.8312Y-5.05
X4.85Y-2.895
X4.85Y-3.005
X4.85Y-3.725
X4.85Y-4.205
X4.85Y-4.325
X4.85Y-5.16
X4.85Y-5.375
X4.8688Y-5.05
X4.869Y-4.941
X4.875Y-4.575
X4.9Y-2.895
X4.9Y-3.005
X4.9Y-3.725
X4.9Y-4.205
X4.9Y-4.325
X4.919Y-4.941
X4.925Y-4.575
X4.9312Y-5.05
X4.95Y-2.895
X4.95Y-3.005
X4.95Y-3.725
X4.95Y-4.205
X4.95Y-4.325
X4.95Y-5.16
X4.9688Y-5.05
X4.969Y-4.941
X4.975Y-4.575
X5.0Y-2.895
X5.0Y-3.005
X5.0Y-3.725
X5.0Y-4.205
X5.0Y-4.325
X5.019Y-4.941
X5.025Y-4.575
X5.0312Y-5.05
X5.04Y-5.375
X5.05Y-2.895
X5.05Y-3.005
X5.05Y-3.725
X5.05Y-4.205
X5.05Y-4.325
X5.05Y-5.16
X5.0688Y-5.05
X5.069Y-4.941
X5.1Y-1.925
X5.1Y-2.525
X5.1Y-3.005
X5.1Y-3.125
X5.1Y-3.725
X5.1Y-4.205
X5.1Y-4.325
X5.119Y-4.941
X5.1312Y-5.05
X5.15Y-5.16
X5.1688Y-5.05
X5.169Y-4.941
X5.19Y-4.2125
X5.22Y-2.83
X5.22Y-3.43
X5.225Y-4.94
X5.2312Y-5.05
X5.2312Y-5.05
X5.24Y-5.375
X5.25Y-2.175
X5.25Y-3.975
X5.25Y-4.1275
X5.25Y-4.2125
X5.25Y-4.575
X5.25Y-4.69
X5.25Y-5.16
X5.2688Y-5.05
X5.2688Y-5.05
X5.2815Y-4.94
X5.3Y-2.895
X5.3Y-3.005
X5.3Y-3.725
X5.3Y-4.395
X5.305Y-4.205
X5.325Y-4.575
X5.3312Y-5.05
X5.3315Y-4.941
X5.35Y-2.895
X5.35Y-3.005
X5.35Y-3.725
X5.35Y-4.41
X5.35Y-5.16
X5.355Y-4.205
X5.3688Y-5.05
X5.375Y-4.575
X5.3815Y-4.941
X5.4Y-2.895
X5.4Y-3.005
X5.4Y-3.725
X5.4Y-4.395
X5.405Y-4.205
X5.425Y-4.575
X5.4312Y-5.05
X5.4315Y-4.941
X5.44Y-5.375
X5.45Y-2.895
X5.45Y-3.005
X5.45Y-3.725
X5.45Y-4.395
X5.45Y-5.16
X5.455Y-4.205
X5.4688Y-5.05
X5.475Y-4.575
X5.4815Y-4.941
X5.5Y-2.895
X5.5Y-3.005
X5.5Y-3.725
X5.5Y-4.325
X5.505Y-4.205
X5.525Y-4.575
X5.5312Y-5.05
X5.5315Y-4.941
X5.55Y-2.895
X5.55Y-3.005
X5.55Y-3.725
X5.55Y-4.325
X5.55Y-5.16
X5.555Y-4.205
X5.5688Y-5.05
X5.575Y-4.575
X5.5815Y-4.941
X5.6Y-2.895
X5.6Y-3.005
X5.6Y-3.725
X5.6Y-4.325
X5.605Y-4.205
X5.625Y-4.575
X5.6312Y-5.05
X5.6315Y-4.941
X5.64Y-5.375
X5.65Y-2.895
X5.65Y-3.005
X5.65Y-3.725
X5.65Y-4.325
X5.65Y-5.16
X5.655Y-4.205
X5.6688Y-5.05
X5.6815Y-4.941
X5.7Y-1.925
X5.7Y-2.525
X5.7Y-3.005
X5.7Y-3.125
X5.7Y-3.725
X5.7Y-4.325
X5.7312Y-5.05
X5.7315Y-4.941
X5.75Y-5.16
X5.7688Y-5.05
X5.7815Y-4.941
X5.82Y-2.83
X5.82Y-3.43
X5.8312Y-5.05
X5.8315Y-4.941
X5.84Y-5.375
X5.85Y-2.175
X5.85Y-3.975
X5.85Y-4.2125
X5.85Y-4.575
X5.85Y-4.69
X5.85Y-5.16
X5.8688Y-5.05
X5.8815Y-4.941
X5.9Y-2.895
X5.9Y-3.005
X5.9Y-3.725
X5.925Y-4.575
X5.9312Y-5.05
X5.9315Y-4.941
X5.95Y-2.895
X5.95Y-3.005
X5.95Y-3.725
X5.95Y-5.16
X5.975Y-4.575
X5.9815Y-4.941
X6.0Y-2.895
X6.0Y-3.005
X6.0Y-3.725
X6.025Y-3.965
X6.025Y-4.355
X6.025Y-4.575
X6.0315Y-4.941
X6.04Y-5.375
X6.05Y-2.895
X6.05Y-3.005
X6.05Y-3.725
X6.05Y-5.06
X6.05Y-5.15
X6.075Y-3.965
X6.075Y-4.365
X6.075Y-4.575
X6.0815Y-4.941
X6.085Y-4.8875
X6.1Y-2.895
X6.1Y-3.005
X6.1Y-3.725
X6.125Y-3.965
X6.125Y-4.575
X6.15Y-2.895
X6.15Y-3.005
X6.15Y-3.725
X6.15Y-4.94
X6.15Y-5.05
X6.15Y-5.15
X6.16Y-4.8875
X6.175Y-3.965
X6.175Y-4.575
X6.2Y-2.895
X6.2Y-3.005
X6.2Y-3.725
X6.2Y-4.8875
X6.225Y-3.965
X6.225Y-4.575
X6.24Y-5.375
X6.25Y-2.41
X6.25Y-2.895
X6.25Y-3.005
X6.25Y-3.725
X6.25Y-5.05
X6.25Y-5.15
X6.3Y-1.925
X6.3Y-2.525
X6.3Y-3.005
X6.3Y-3.125
X6.3Y-3.725
X6.3Y-4.325
X6.35Y-4.9625
X6.35Y-5.05
X6.35Y-5.15
X6.4125Y-2.205
X6.4125Y-2.605
X6.42Y-3.43
X6.44Y-5.375
X6.45Y-3.975
X6.45Y-5.15
X6.465Y-2.085
X6.485Y-2.035
X6.4975Y-2.2
X6.4975Y-2.6
X6.5025Y-2.2875
X6.5025Y-2.6875
X6.525Y-2.255
X6.525Y-2.45
X6.525Y-2.655
X6.525Y-2.745
X6.545Y-4.91
X6.55Y-3.855
X6.5675Y-4.7775
X6.575Y-2.145
X6.575Y-2.45
X6.6Y-4.38
X6.6Y-4.755
X6.625Y-2.255
X6.625Y-2.45
X6.635Y-4.105
X6.64Y-5.375
X6.65Y-3.975
X6.65Y-4.47
X6.65Y-4.95
X6.6575Y-2.1175
X6.675Y-2.45
X6.7Y-3.975
X6.7Y-4.38
X6.7Y-4.755
X6.725Y-2.145
X6.73Y-5.175
X6.75Y-3.975
X6.75Y-4.47
X6.775Y-2.655
X6.8Y-2.075
X6.8Y-3.975
X6.8Y-4.38
X6.8Y-4.845
X6.82Y-5.375
X6.825Y-2.655
X6.85Y-3.975
X6.85Y-4.465
X6.85Y-4.755
X6.9Y-3.125
X6.9Y-3.725
X6.9Y-4.38
X6.925Y-3.88
X6.93Y-2.79
X6.94Y-3.775
X6.94Y-5.275
X6.96Y-3.275
X6.96Y-5.16
X6.99Y-3.54
X7.0Y-5.165
X7.0Y-5.2775
X7.005Y-5.375
X7.02Y-2.725
X7.02Y-4.3
X7.04Y-5.1525
X7.05Y-5.005
X7.06Y-2.47
X7.06Y-2.69
X7.06Y-4.335
X7.06Y-5.275
X7.07Y-5.0575
X7.0725Y-4.48
X7.085Y-3.7925
X7.0925Y-3.4525
X7.0975Y-3.88
X7.1025Y-4.55
X7.105Y-3.65
X7.115Y-5.0175
X7.1225Y-3.955
X7.135Y-4.0425
X7.205Y-5.375
X7.29Y-3.6825
X7.305Y-3.3525
X7.305Y-3.7275
X7.32Y-3.8125
X7.335Y-2.925
X7.335Y-2.975
X7.335Y-3.025
X7.335Y-3.075
X7.335Y-3.125
X7.335Y-3.175
X7.335Y-3.225
X7.335Y-3.275
X7.335Y-3.8975
X7.35Y-3.9825
X7.365Y-4.0675
X7.38Y-2.88
X7.38Y-3.32
X7.38Y-4.1525
X7.395Y-4.2375
X7.405Y-5.375
X7.41Y-4.3225
X7.425Y-4.4075
X7.43Y-2.88
X7.44Y-4.4925
X7.455Y-4.5775
X7.4675Y-4.67
X7.48Y-2.88
X7.485Y-4.7475
X7.525Y-4.7475
X7.53Y-3.32
X7.5425Y-4.67
X7.555Y-2.48
X7.555Y-4.5775
X7.57Y-4.4925
X7.58Y-2.52
X7.58Y-3.32
X7.585Y-4.45
X7.595Y-4.3375
X7.6Y-4.2225
X7.605Y-2.915
X7.605Y-5.375
X7.615Y-4.1375
X7.63Y-2.88
X7.63Y-3.32
X7.63Y-4.0525
X7.64Y-3.15
X7.645Y-3.97
X7.66Y-3.8825
X7.675Y-2.925
X7.675Y-2.975
X7.675Y-3.025
X7.675Y-3.075
X7.675Y-3.125
X7.675Y-3.175
X7.675Y-3.7975
X7.69Y-3.7125
X7.71Y-3.5825
X7.7575Y-5.175
X7.805Y-5.375
X7.815Y-5.2525
X7.815Y-5.2925
X7.87Y-2.705
X7.9025Y-3.52
X7.93Y-2.705
X7.9325Y-4.0925
X7.975Y-4.1325
X7.99Y-2.705
X8.005Y-5.375
X8.015Y-2.85
X8.0175Y-4.0925
X8.055Y-2.83
X8.061Y-3.3327
X8.095Y-2.81
X8.125Y-3.485
X8.125Y-3.6375
X8.1732Y-3.7697
X8.205Y-3.44
X8.205Y-5.375
X8.2275Y-4.4075
X8.2736Y-2.1319
X8.285Y-3.3925
X8.3125Y-4.4075
X8.3189Y-2.1654
X8.33Y-3.605
X8.3937Y-2.2953
X8.3937Y-3.8445
X8.3937Y-5.2933
X8.405Y-5.375
X8.415Y-4.045
X8.415Y-4.095
X8.4154Y-2.5591
X8.4232Y-2.5098
X8.4356Y-3.6575
X8.4488Y-2.4803
X8.4533Y-3.8228
X8.4927Y-3.8012
X8.4941Y-2.4705
X8.5Y-3.3925
X8.5045Y-3.6575
X8.505Y-3.995
X8.5059Y-2.4272
X8.5118Y-2.1319
X8.5472Y-2.4134
X8.605Y-5.375
X8.65Y-4.16
X8.6732Y-2.2618
X8.73Y-4.16
X8.76Y-2.54
X8.805Y-2.585
X8.805Y-5.375
X8.865Y-1.915
X8.91Y-2.355
X8.91Y-2.415
X8.91Y-2.49
X8.91Y-2.625
X8.985Y-2.605
X8.9862Y-2.8642
X8.998Y-3.9232
X9.005Y-5.375
X9.0217Y-2.8031
X9.0236Y-2.685
X9.0591Y-3.1476
X9.061Y-3.2933
X9.061Y-3.372
X9.061Y-3.4508
X9.061Y-3.5295
X9.061Y-3.6083
X9.061Y-3.7106
X9.061Y-3.7894
X9.061Y-3.8681
X9.0866Y-2.8445
X9.0886Y-2.7244
X9.0886Y-4.2736
X9.1299Y-3.0807
X9.1398Y-2.7638
X9.1713Y-2.6654
X9.1929Y-2.8976
X9.1949Y-2.8445
X9.1988Y-3.2933
X9.1988Y-3.372
X9.1988Y-3.4508
X9.1988Y-3.5295
X9.1988Y-3.7894
X9.1988Y-3.8681
X9.205Y-5.375
X9.2165Y-2.7047
X9.2283Y-3.0787
X9.2362Y-2.8307
X9.2717Y-2.8937
X9.2756Y-4.2933
X9.2756Y-4.3563
X9.2795Y-3.0787
X9.2815Y-3.252
X9.295Y-1.865
X9.295Y-2.065
X9.295Y-2.265
X9.295Y-2.465
X9.295Y-2.665
X9.295Y-4.105
X9.295Y-4.545
X9.295Y-4.745
X9.295Y-4.945
X9.295Y-5.145
X9.315Y-2.855
X9.315Y-3.995
X9.3465Y-2.9921
X9.372Y-2.9528
X9.3799Y-2.9134
X9.425Y-3.975
X9.4311Y-2.9724
X9.4783Y-2.9331
X9.505Y-2.875
X9.5295Y-3.8524
X9.5425Y-2.96
X9.5775Y-3.8325
X9.625Y-3.975
X9.6275Y-3.015
X9.6275Y-3.8325
X9.6775Y-3.015
X9.6775Y-3.8325
X9.705Y-2.875
X9.7405Y-2.9675
X9.7525Y-3.02
X9.8025Y-3.02
X9.8025Y-3.83
X9.825Y-3.975
X9.8525Y-3.02
X9.8525Y-3.83
X9.9025Y-3.83
X9.905Y-2.875
X9.9275Y-3.015
X9.9491Y-2.9675
X9.9525Y-3.83
X10.025Y-3.975
X10.0275Y-3.015
X10.0275Y-3.835
X10.0775Y-3.015
X10.0775Y-3.835
X10.105Y-2.875
X10.1275Y-3.015
X10.1275Y-3.835
X10.1775Y-3.015
X10.1775Y-3.835
X10.21Y-3.975
X10.285Y-2.875
T2
X3.07Y-2.775
X3.07Y-3.125
X3.07Y-3.21
X3.07Y-3.475
X3.07Y-3.56
X3.07Y-3.825
X3.07Y-3.91
X3.07Y-4.175
X3.07Y-4.26
X3.07Y-4.525
X3.07Y-4.61
X3.085Y-4.115
X3.1Y-2.7225
X3.1Y-3.0725
X3.1Y-3.4225
X3.1Y-3.7725
X3.1Y-4.4725
X3.38Y-4.9
X3.4Y-2.9175
X3.4Y-3.0275
X3.4Y-3.2675
X3.4Y-3.3775
X3.4Y-3.6175
X3.4Y-3.7275
X3.4Y-3.9675
X3.4Y-4.0775
X3.4Y-4.3175
X3.4Y-4.4275
X3.4Y-4.6675
X3.4Y-4.7775
X3.425Y-4.855
X3.455Y-3.1325
X3.455Y-3.185
X3.455Y-3.4825
X3.455Y-3.535
X3.455Y-3.8325
X3.455Y-3.885
X3.455Y-4.1825
X3.455Y-4.235
X3.455Y-4.5325
X3.455Y-4.585
X3.475Y-4.855
X3.52Y-4.9
X3.545Y-3.125
X3.545Y-3.21
X3.545Y-3.475
X3.545Y-3.56
X3.545Y-3.825
X3.545Y-3.91
X3.545Y-4.175
X3.545Y-4.26
X3.545Y-4.525
X3.545Y-4.61
X3.575Y-3.0725
X3.575Y-3.4225
X3.575Y-3.7725
X3.575Y-4.1225
X3.575Y-4.4725
X3.875Y-3.2675
X3.875Y-3.3775
X3.875Y-3.6175
X3.875Y-3.7275
X3.875Y-3.9675
X3.875Y-4.0775
X3.875Y-4.3175
X3.875Y-4.4275
X3.875Y-4.6675
X3.875Y-4.7775
X3.99Y-1.72
X3.99Y-1.81
X3.99Y-2.32
X3.99Y-2.41
X3.99Y-2.92
X3.99Y-3.01
X3.99Y-3.52
X3.99Y-3.61
X3.99Y-4.205
X4.02Y-1.865
X4.02Y-2.465
X4.02Y-3.065
X4.02Y-3.665
X4.0425Y-1.72
X4.0425Y-2.32
X4.0425Y-2.92
X4.0425Y-3.52
X4.05Y-1.81
X4.05Y-1.925
X4.05Y-2.41
X4.05Y-2.525
X4.05Y-3.01
X4.05Y-3.125
X4.05Y-3.61
X4.05Y-3.725
X4.05Y-4.205
X4.05Y-4.325
X4.5Y-2.175
X4.5Y-2.29
X4.5Y-2.775
X4.5Y-2.89
X4.5Y-3.375
X4.5Y-3.49
X4.5Y-3.975
X4.5Y-4.09
X4.5Y-4.575
X4.5Y-4.69
X4.53Y-2.235
X4.53Y-2.835
X4.53Y-3.435
X4.53Y-4.035
X4.58Y-4.21
X4.59Y-1.72
X4.59Y-1.81
X4.59Y-2.32
X4.59Y-2.41
X4.59Y-2.92
X4.59Y-3.01
X4.59Y-3.52
X4.59Y-3.61
X4.62Y-1.865
X4.62Y-2.465
X4.62Y-3.065
X4.62Y-3.665
X4.64Y-4.21
X4.6425Y-1.72
X4.6425Y-2.32
X4.6425Y-2.92
X4.6425Y-3.52
X4.65Y-1.81
X4.65Y-1.925
X4.65Y-2.41
X4.65Y-2.525
X4.65Y-3.01
X4.65Y-3.125
X4.65Y-3.61
X4.65Y-3.725
X4.65Y-4.325
X5.1Y-2.175
X5.1Y-2.29
X5.1Y-2.775
X5.1Y-2.89
X5.1Y-3.375
X5.1Y-3.49
X5.1Y-3.975
X5.1Y-4.09
X5.1Y-4.575
X5.1Y-4.69
X5.13Y-2.235
X5.13Y-2.835
X5.13Y-3.435
X5.13Y-4.035
X5.19Y-1.72
X5.19Y-1.81
X5.19Y-2.32
X5.19Y-2.41
X5.19Y-2.92
X5.19Y-3.01
X5.19Y-3.52
X5.19Y-3.61
X5.19Y-4.125
X5.22Y-1.865
X5.22Y-2.465
X5.22Y-3.065
X5.22Y-3.665
X5.2425Y-1.72
X5.2425Y-2.32
X5.2425Y-2.92
X5.2425Y-3.52
X5.25Y-1.81
X5.25Y-1.925
X5.25Y-2.41
X5.25Y-2.525
X5.25Y-3.01
X5.25Y-3.125
X5.25Y-3.61
X5.25Y-3.725
X5.25Y-4.325
X5.7Y-2.175
X5.7Y-2.29
X5.7Y-2.775
X5.7Y-2.89
X5.7Y-3.375
X5.7Y-3.49
X5.7Y-3.975
X5.7Y-4.09
X5.7Y-4.575
X5.7Y-4.69
X5.73Y-2.235
X5.73Y-2.835
X5.73Y-3.435
X5.73Y-4.035
X5.79Y-1.72
X5.79Y-1.81
X5.79Y-2.32
X5.79Y-2.41
X5.79Y-2.92
X5.79Y-3.01
X5.79Y-3.52
X5.79Y-3.61
X5.79Y-4.215
X5.795Y-4.12
X5.82Y-1.865
X5.82Y-2.465
X5.82Y-3.065
X5.82Y-3.665
X5.8425Y-1.72
X5.8425Y-2.32
X5.8425Y-2.92
X5.8425Y-3.52
X5.85Y-1.81
X5.85Y-1.925
X5.85Y-2.41
X5.85Y-2.525
X5.85Y-3.01
X5.85Y-3.125
X5.85Y-3.61
X5.85Y-3.725
X5.85Y-4.325
X5.85Y-4.325
X5.9025Y-4.1525
X6.3Y-2.175
X6.3Y-2.29
X6.3Y-2.775
X6.3Y-2.89
X6.3Y-3.375
X6.3Y-3.49
X6.3Y-3.975
X6.3Y-4.09
X6.3Y-4.575
X6.3Y-4.69
X6.33Y-2.235
X6.33Y-2.835
X6.33Y-3.435
X6.33Y-4.035
X6.39Y-2.92
X6.39Y-3.01
X6.39Y-3.52
X6.39Y-3.61
X6.41Y-2.26
X6.41Y-2.66
X6.42Y-3.065
X6.42Y-3.665
X6.4425Y-2.92
X6.4425Y-3.52
X6.45Y-3.01
X6.45Y-3.125
X6.45Y-3.61
X6.45Y-3.725
X6.48Y-4.3325
X6.48Y-4.385
X6.48Y-4.7075
X6.48Y-4.76
X6.525Y-2.1475
X6.525Y-2.5475
X6.57Y-4.325
X6.57Y-4.41
X6.57Y-4.7
X6.585Y-5.025
X6.585Y-5.115
X6.6Y-4.2725
X6.6Y-4.6475
X6.63Y-5.07
X6.825Y-2.3425
X6.825Y-2.4525
X6.8525Y-2.3975
X6.9Y-3.375
X6.9Y-3.49
X6.9Y-3.975
X6.9Y-4.09
X6.9Y-4.4675
X6.9Y-4.5775
X6.9Y-4.8425
X6.9Y-4.9525
X6.93Y-4.035
X7.455Y-3.3225
X7.455Y-3.415
X7.5175Y-2.63
X7.555Y-2.675
X7.555Y-2.785
X7.555Y-2.8775
X7.5625Y-2.585
X7.615Y-2.585
X7.615Y-2.675
X7.66Y-2.63
X7.6775Y-3.25
X7.77Y-3.25
X7.885Y-3.66
X7.93Y-3.5625
X7.93Y-3.705
X7.975Y-3.6075
X7.975Y-3.66
X8.2175Y-4.085
X8.2175Y-4.1375
X8.248Y-5.1713
X8.2625Y-4.04
X8.2625Y-4.1825
X8.2913Y-5.2146
X8.3075Y-3.995
X8.3075Y-4.07
X8.3075Y-4.145
X8.3386Y-2.0335
X8.3386Y-2.128
X8.3465Y-5.2146
X8.3504Y-5.25
X8.3625Y-3.9675
X8.3957Y-5.2047
X8.4175Y-3.995
X8.4175Y-4.145
X8.4252Y-2.0335
X8.4252Y-2.128
X8.475Y-3.9675
X8.4975Y-3.8775
X8.55Y-3.8775
X8.5575Y-3.9675
X8.6125Y-3.995
X9.189Y-4.2933
X9.189Y-4.3563
X9.9367Y-3.3413
X9.9367Y-3.3856
X9.9367Y-3.43
X9.981Y-3.3413
X9.981Y-3.43
X10.02Y-2.97
X10.0254Y-3.3413
X10.0254Y-3.3856
X10.0254Y-3.43
X10.0725Y-2.97
X10.1675Y-2.97
T3
X9.5075Y-3.2
X9.5775Y-3.01
X9.5775Y-3.15
X10.12Y-2.925
X10.2275Y-3.01
X10.2775Y-3.01
X10.2775Y-3.84
T4
X7.9429Y-1.6634
X7.9705Y-2.0413
X7.9902Y-1.5965
X7.9902Y-1.7303
X8.0256Y-1.9882
X8.0256Y-2.0945
X8.0256Y-4.502
X8.0256Y-4.5807
X8.0256Y-4.6594
X8.0256Y-4.7382
X8.0256Y-4.8051
X8.0256Y-4.872
X8.0256Y-4.9311
X8.0256Y-5.0098
X8.0256Y-5.0886
X8.0256Y-5.1673
X8.0256Y-5.2461
X8.0374Y-1.6634
X8.0807Y-2.0413
X8.1043Y-4.502
X8.1043Y-4.5807
X8.1043Y-4.6594
X8.1043Y-4.7382
X8.1043Y-4.8051
X8.1043Y-4.872
X8.1043Y-4.9311
X8.1043Y-5.0098
X8.1043Y-5.0886
X8.1043Y-5.1673
X8.1043Y-5.2461
X8.1831Y-4.502
X8.1831Y-4.5807
X8.1831Y-4.6594
X8.1831Y-4.7382
X8.1831Y-4.8051
X8.1831Y-4.872
X8.1831Y-4.9311
X8.1831Y-5.0098
X8.1831Y-5.0886
X8.1831Y-5.1673
X8.1831Y-5.2461
X8.2618Y-4.502
X8.2618Y-4.5807
X8.2618Y-4.6594
X8.2618Y-4.7382
X8.2618Y-4.8051
X8.2618Y-4.872
X8.2618Y-4.9311
X8.2736Y-4.9902
X8.2736Y-5.1161
X8.3642Y-4.502
X8.3642Y-4.5807
X8.3642Y-4.6594
X8.3642Y-4.7382
X8.3642Y-4.872
X8.3642Y-4.9311
X8.3642Y-4.9902
X8.3642Y-5.1161
X8.4547Y-4.9902
X8.4547Y-5.1161
X8.4665Y-4.502
X8.4665Y-4.5807
X8.4665Y-4.6594
X8.4665Y-4.7382
X8.4665Y-4.8051
X8.4665Y-4.872
X8.4665Y-4.9311
X8.5453Y-4.502
X8.5453Y-4.5807
X8.5453Y-4.6594
X8.5453Y-4.7382
X8.5453Y-4.8051
X8.5453Y-4.872
X8.5453Y-4.9311
X8.5453Y-5.0098
X8.5453Y-5.0886
X8.5453Y-5.1673
X8.5453Y-5.2461
X8.5453Y-5.3248
X8.5531Y-1.6634
X8.6004Y-1.5965
X8.6004Y-1.7303
X8.6024Y-1.9882
X8.6024Y-2.0945
X8.624Y-4.502
X8.624Y-4.5807
X8.624Y-4.6594
X8.624Y-4.7382
X8.624Y-4.8051
X8.624Y-4.872
X8.624Y-4.9311
X8.624Y-5.0098
X8.624Y-5.0886
X8.624Y-5.1673
X8.624Y-5.2461
X8.624Y-5.3248
X8.6476Y-1.6634
X8.6496Y-2.0413
X8.7028Y-4.502
X8.7028Y-4.5807
X8.7028Y-4.6594
X8.7028Y-4.7382
X8.7028Y-4.8051
X8.7028Y-4.872
X8.7028Y-4.9311
X8.7028Y-5.0098
X8.7028Y-5.0886
X8.7028Y-5.1673
X8.7028Y-5.2461
X8.7815Y-4.502
X8.7815Y-4.5807
X8.7815Y-4.6594
X8.7815Y-4.7382
X8.7815Y-4.8051
X8.7815Y-4.872
X8.7815Y-4.9311
X8.7815Y-5.0098
X8.7815Y-5.0886
X8.8602Y-4.502
X8.8602Y-4.5807
X8.8602Y-4.6594
X8.8602Y-4.7382
X8.8602Y-4.8051
X8.8602Y-4.872
X8.8602Y-4.9311
X8.939Y-4.502
X8.939Y-4.5807
X8.939Y-4.6594
X8.939Y-4.7382
X8.939Y-4.8051
X8.939Y-4.872
X8.9905Y-1.57
X8.9905Y-5.005
X9.0177Y-4.502
X9.0177Y-4.5807
X9.0177Y-4.6594
X9.0177Y-4.7382
X9.0177Y-4.8051
X9.0182Y-1.5032
X9.0182Y-1.6368
X9.0182Y-4.9382
X9.0182Y-5.0718
X9.085Y-1.4755
X9.085Y-1.6645
X9.085Y-4.9105
X9.085Y-5.0995
X9.0965Y-4.5807
X9.0965Y-4.6594
X9.0965Y-4.7382
X9.0965Y-4.8051
X9.1518Y-1.5032
X9.1518Y-1.6368
X9.1518Y-4.9382
X9.1518Y-5.0718
X9.1752Y-4.5807
X9.1752Y-4.6594
X9.1752Y-4.7382
X9.1752Y-4.8051
X9.1795Y-1.57
X9.1795Y-5.005
X9.2539Y-4.5807
X9.2539Y-4.6594
X9.2539Y-4.7382
X9.2539Y-4.8051
T5
X9.128Y-4.2293
X9.128Y-4.4203
T6
X7.205Y-3.6
X7.205Y-3.7
X7.205Y-3.8
X7.205Y-3.9
X7.205Y-4.0
X7.205Y-4.1
X7.205Y-4.2
X7.205Y-4.3
X7.205Y-4.4
X7.205Y-4.5
X7.205Y-4.6
X7.205Y-4.7
X7.205Y-4.8
X7.205Y-4.9
X7.205Y-5.0
X7.205Y-5.1
X7.805Y-3.6
X7.805Y-3.7
X7.805Y-3.8
X7.805Y-3.9
X7.805Y-4.0
X7.805Y-4.1
X7.805Y-4.2
X7.805Y-4.3
X7.805Y-4.4
X7.805Y-4.5
X7.805Y-4.6
X7.805Y-4.7
X7.805Y-4.8
X7.805Y-4.9
X7.805Y-5.0
X7.805Y-5.1
T7
X3.3Y-5.0
X3.3Y-5.1
X3.3Y-5.2
X3.4Y-5.0
X3.4Y-5.1
X3.4Y-5.2
X3.5Y-5.0
X3.5Y-5.1
X3.5Y-5.2
X3.6Y-5.0
X3.6Y-5.1
X3.6Y-5.2
X3.7Y-5.0
X3.7Y-5.1
X3.7Y-5.2
X3.8Y-5.0
X3.8Y-5.1
X3.8Y-5.2
X3.9Y-5.0
X3.9Y-5.1
X3.9Y-5.2
X4.0Y-5.0
X4.0Y-5.1
X4.0Y-5.2
X4.1Y-5.0
X4.1Y-5.1
X4.1Y-5.2
X4.2Y-5.0
X4.2Y-5.1
X4.2Y-5.2
X4.3Y-5.0
X4.3Y-5.1
X4.3Y-5.2
X4.4Y-5.0
X4.4Y-5.1
X4.4Y-5.2
X4.5Y-5.0
X4.5Y-5.1
X4.5Y-5.2
X4.6Y-5.0
X4.6Y-5.1
X4.6Y-5.2
X4.7Y-5.0
X4.7Y-5.1
X4.7Y-5.2
X4.8Y-5.0
X4.8Y-5.1
X4.8Y-5.2
X4.9Y-5.0
X4.9Y-5.1
X4.9Y-5.2
X5.0Y-5.0
X5.0Y-5.1
X5.0Y-5.2
X5.1Y-5.0
X5.1Y-5.1
X5.1Y-5.2
X5.2Y-5.0
X5.2Y-5.1
X5.2Y-5.2
X5.3Y-5.0
X5.3Y-5.1
X5.3Y-5.2
X5.4Y-5.0
X5.4Y-5.1
X5.4Y-5.2
X5.5Y-5.0
X5.5Y-5.1
X5.5Y-5.2
X5.6Y-5.0
X5.6Y-5.1
X5.6Y-5.2
X5.7Y-5.0
X5.7Y-5.1
X5.7Y-5.2
X5.8Y-5.0
X5.8Y-5.1
X5.8Y-5.2
X5.9Y-5.0
X5.9Y-5.1
X5.9Y-5.2
X6.0Y-5.0
X6.0Y-5.1
X6.0Y-5.2
X6.1Y-5.0
X6.1Y-5.1
X6.1Y-5.2
X6.2Y-5.0
X6.2Y-5.1
X6.2Y-5.2
X6.3Y-5.0
X6.3Y-5.1
X6.3Y-5.2
X6.4Y-5.0
X6.4Y-5.1
X6.4Y-5.2
X9.05Y-2.085
X9.05Y-2.185
X9.05Y-2.285
X9.05Y-2.385
X9.05Y-2.485
X9.15Y-2.085
X9.15Y-2.185
X9.15Y-2.285
X9.15Y-2.385
X9.15Y-2.485
T8
X9.085Y-1.57
X9.085Y-5.005
T9
X8.1752Y-1.6476
X8.4902Y-1.6476
T10
X2.795Y-1.5
X2.8Y-5.3
X9.25Y-1.67
X9.255Y-5.335
T11
X3.1Y-5.3
X6.6Y-5.3
T4
G00X9.2165Y-4.1831
M15
G01X9.248Y-4.1831
M16
G05
G00X9.248Y-4.4665
M15
G01X9.2165Y-4.4665
M16
G05
T0
M30
