G04 #@! TF.GenerationSoftware,KiCad,Pcbnew,(5.1.10-1-10_14)*
G04 #@! TF.CreationDate,2022-01-14T08:56:19-05:00*
G04 #@! TF.ProjectId,NuBus-ESP32,4e754275-732d-4455-9350-33322e6b6963,rev?*
G04 #@! TF.SameCoordinates,Original*
G04 #@! TF.FileFunction,Profile,NP*
%FSLAX46Y46*%
G04 Gerber Fmt 4.6, Leading zero omitted, Abs format (unit mm)*
G04 Created by KiCad (PCBNEW (5.1.10-1-10_14)) date 2022-01-14 08:56:19*
%MOMM*%
%LPD*%
G01*
G04 APERTURE LIST*
G04 #@! TA.AperFunction,Profile*
%ADD10C,0.150000*%
G04 #@! TD*
G04 APERTURE END LIST*
D10*
X236093000Y-44196000D02*
G75*
G03*
X236728000Y-43561000I0J635000D01*
G01*
X225679000Y-131318000D02*
G75*
G03*
X225679000Y-133858000I0J-1270000D01*
G01*
X225679000Y-133858000D02*
X236093000Y-133858000D01*
X225679000Y-131318000D02*
X236093000Y-131318000D01*
X236728000Y-36195000D02*
G75*
G03*
X236093000Y-35560000I-635000J0D01*
G01*
X236728000Y-47371000D02*
G75*
G03*
X236093000Y-46736000I-635000J0D01*
G01*
X225679000Y-46736000D02*
X236093000Y-46736000D01*
X225679000Y-44196000D02*
X236093000Y-44196000D01*
X225679000Y-44196000D02*
G75*
G03*
X225679000Y-46736000I0J-1270000D01*
G01*
X236728000Y-36195000D02*
X236728000Y-43561000D01*
X236728000Y-136525000D02*
X236728000Y-134493000D01*
X236728000Y-136525000D02*
G75*
G02*
X236093000Y-137160000I-635000J0D01*
G01*
X236093000Y-133858000D02*
G75*
G02*
X236728000Y-134493000I0J-635000D01*
G01*
X236728000Y-130683000D02*
G75*
G02*
X236093000Y-131318000I-635000J0D01*
G01*
X236728000Y-102870000D02*
X236728000Y-130683000D01*
X201930000Y-38608000D02*
X219329000Y-38608000D01*
X222739949Y-36303949D02*
X221125051Y-37864051D01*
X198519051Y-36303949D02*
X200133949Y-37864051D01*
X200133949Y-37864051D02*
G75*
G03*
X201930000Y-38608000I1796051J1796051D01*
G01*
X198519051Y-36303949D02*
G75*
G03*
X196723000Y-35560000I-1796051J-1796051D01*
G01*
X221125051Y-37864051D02*
G75*
G02*
X219329000Y-38608000I-1796051J1796051D01*
G01*
X222739949Y-36303949D02*
G75*
G02*
X224536000Y-35560000I1796051J-1796051D01*
G01*
X224536000Y-35560000D02*
X236093000Y-35560000D01*
X262128000Y-73660000D02*
X262128000Y-100330000D01*
X260858000Y-72390000D02*
G75*
G02*
X262128000Y-73660000I0J-1270000D01*
G01*
X237998000Y-72390000D02*
G75*
G02*
X236728000Y-71120000I0J1270000D01*
G01*
X260858000Y-72390000D02*
X237998000Y-72390000D01*
X260858000Y-101600000D02*
X237998000Y-101600000D01*
X236728000Y-102870000D02*
G75*
G02*
X237998000Y-101600000I1270000J0D01*
G01*
X262128000Y-100330000D02*
G75*
G02*
X260858000Y-101600000I-1270000J0D01*
G01*
X70993000Y-137160000D02*
G75*
G02*
X68453000Y-134620000I0J2540000D01*
G01*
X68453000Y-38100000D02*
G75*
G02*
X70993000Y-35560000I2540000J0D01*
G01*
X236728000Y-71120000D02*
X236728000Y-47371000D01*
X70993000Y-35560000D02*
X196723000Y-35560000D01*
X68453000Y-134620000D02*
X68453000Y-38100000D01*
X236093000Y-137160000D02*
X70993000Y-137160000D01*
M02*
