G04 #@! TF.GenerationSoftware,KiCad,Pcbnew,(5.1.10-1-10_14)*
G04 #@! TF.CreationDate,2022-01-14T08:56:19-05:00*
G04 #@! TF.ProjectId,NuBus-ESP32,4e754275-732d-4455-9350-33322e6b6963,rev?*
G04 #@! TF.SameCoordinates,Original*
G04 #@! TF.FileFunction,Legend,Bot*
G04 #@! TF.FilePolarity,Positive*
%FSLAX46Y46*%
G04 Gerber Fmt 4.6, Leading zero omitted, Abs format (unit mm)*
G04 Created by KiCad (PCBNEW (5.1.10-1-10_14)) date 2022-01-14 08:56:19*
%MOMM*%
%LPD*%
G01*
G04 APERTURE LIST*
%ADD10C,0.225000*%
%ADD11C,0.203200*%
%ADD12C,0.300000*%
%ADD13C,1.700000*%
%ADD14C,2.850000*%
%ADD15C,1.550000*%
%ADD16C,6.400000*%
%ADD17C,0.800000*%
%ADD18R,2.400000X1.600000*%
%ADD19O,2.400000X1.600000*%
%ADD20C,1.100000*%
%ADD21C,1.448000*%
%ADD22O,2.000000X1.170000*%
%ADD23C,1.400000*%
G04 APERTURE END LIST*
D10*
X164211000Y-39624000D02*
X164065857Y-39551428D01*
X163848142Y-39551428D01*
X163630428Y-39624000D01*
X163485285Y-39769142D01*
X163412714Y-39914285D01*
X163340142Y-40204571D01*
X163340142Y-40422285D01*
X163412714Y-40712571D01*
X163485285Y-40857714D01*
X163630428Y-41002857D01*
X163848142Y-41075428D01*
X163993285Y-41075428D01*
X164211000Y-41002857D01*
X164283571Y-40930285D01*
X164283571Y-40422285D01*
X163993285Y-40422285D01*
X165589857Y-41075428D02*
X165589857Y-40277142D01*
X165517285Y-40132000D01*
X165372142Y-40059428D01*
X165081857Y-40059428D01*
X164936714Y-40132000D01*
X165589857Y-41002857D02*
X165444714Y-41075428D01*
X165081857Y-41075428D01*
X164936714Y-41002857D01*
X164864142Y-40857714D01*
X164864142Y-40712571D01*
X164936714Y-40567428D01*
X165081857Y-40494857D01*
X165444714Y-40494857D01*
X165589857Y-40422285D01*
X166315571Y-41075428D02*
X166315571Y-40059428D01*
X166315571Y-40349714D02*
X166388142Y-40204571D01*
X166460714Y-40132000D01*
X166605857Y-40059428D01*
X166751000Y-40059428D01*
X167259000Y-41075428D02*
X167259000Y-40059428D01*
X167259000Y-40349714D02*
X167331571Y-40204571D01*
X167404142Y-40132000D01*
X167549285Y-40059428D01*
X167694428Y-40059428D01*
X168783000Y-41002857D02*
X168637857Y-41075428D01*
X168347571Y-41075428D01*
X168202428Y-41002857D01*
X168129857Y-40857714D01*
X168129857Y-40277142D01*
X168202428Y-40132000D01*
X168347571Y-40059428D01*
X168637857Y-40059428D01*
X168783000Y-40132000D01*
X168855571Y-40277142D01*
X168855571Y-40422285D01*
X168129857Y-40567428D01*
X169291000Y-40059428D02*
X169871571Y-40059428D01*
X169508714Y-39551428D02*
X169508714Y-40857714D01*
X169581285Y-41002857D01*
X169726428Y-41075428D01*
X169871571Y-41075428D01*
X170161857Y-40059428D02*
X170742428Y-40059428D01*
X170379571Y-39551428D02*
X170379571Y-40857714D01*
X170452142Y-41002857D01*
X170597285Y-41075428D01*
X170742428Y-41075428D01*
X171323000Y-39551428D02*
X171323000Y-39624000D01*
X171250428Y-39769142D01*
X171177857Y-39841714D01*
X171903571Y-41002857D02*
X172048714Y-41075428D01*
X172339000Y-41075428D01*
X172484142Y-41002857D01*
X172556714Y-40857714D01*
X172556714Y-40785142D01*
X172484142Y-40640000D01*
X172339000Y-40567428D01*
X172121285Y-40567428D01*
X171976142Y-40494857D01*
X171903571Y-40349714D01*
X171903571Y-40277142D01*
X171976142Y-40132000D01*
X172121285Y-40059428D01*
X172339000Y-40059428D01*
X172484142Y-40132000D01*
X174225857Y-39551428D02*
X174588714Y-41075428D01*
X174879000Y-39986857D01*
X175169285Y-41075428D01*
X175532142Y-39551428D01*
X176330428Y-41075428D02*
X176185285Y-41002857D01*
X176112714Y-40930285D01*
X176040142Y-40785142D01*
X176040142Y-40349714D01*
X176112714Y-40204571D01*
X176185285Y-40132000D01*
X176330428Y-40059428D01*
X176548142Y-40059428D01*
X176693285Y-40132000D01*
X176765857Y-40204571D01*
X176838428Y-40349714D01*
X176838428Y-40785142D01*
X176765857Y-40930285D01*
X176693285Y-41002857D01*
X176548142Y-41075428D01*
X176330428Y-41075428D01*
X177491571Y-41075428D02*
X177491571Y-40059428D01*
X177491571Y-40349714D02*
X177564142Y-40204571D01*
X177636714Y-40132000D01*
X177781857Y-40059428D01*
X177927000Y-40059428D01*
X178435000Y-41075428D02*
X178435000Y-39551428D01*
X178580142Y-40494857D02*
X179015571Y-41075428D01*
X179015571Y-40059428D02*
X178435000Y-40640000D01*
X179596142Y-41002857D02*
X179741285Y-41075428D01*
X180031571Y-41075428D01*
X180176714Y-41002857D01*
X180249285Y-40857714D01*
X180249285Y-40785142D01*
X180176714Y-40640000D01*
X180031571Y-40567428D01*
X179813857Y-40567428D01*
X179668714Y-40494857D01*
X179596142Y-40349714D01*
X179596142Y-40277142D01*
X179668714Y-40132000D01*
X179813857Y-40059428D01*
X180031571Y-40059428D01*
X180176714Y-40132000D01*
X180902428Y-41075428D02*
X180902428Y-39551428D01*
X181555571Y-41075428D02*
X181555571Y-40277142D01*
X181483000Y-40132000D01*
X181337857Y-40059428D01*
X181120142Y-40059428D01*
X180975000Y-40132000D01*
X180902428Y-40204571D01*
X182499000Y-41075428D02*
X182353857Y-41002857D01*
X182281285Y-40930285D01*
X182208714Y-40785142D01*
X182208714Y-40349714D01*
X182281285Y-40204571D01*
X182353857Y-40132000D01*
X182499000Y-40059428D01*
X182716714Y-40059428D01*
X182861857Y-40132000D01*
X182934428Y-40204571D01*
X183007000Y-40349714D01*
X183007000Y-40785142D01*
X182934428Y-40930285D01*
X182861857Y-41002857D01*
X182716714Y-41075428D01*
X182499000Y-41075428D01*
X183660142Y-40059428D02*
X183660142Y-41583428D01*
X183660142Y-40132000D02*
X183805285Y-40059428D01*
X184095571Y-40059428D01*
X184240714Y-40132000D01*
X184313285Y-40204571D01*
X184385857Y-40349714D01*
X184385857Y-40785142D01*
X184313285Y-40930285D01*
X184240714Y-41002857D01*
X184095571Y-41075428D01*
X183805285Y-41075428D01*
X183660142Y-41002857D01*
D11*
X186363428Y-42708285D02*
X186750476Y-42708285D01*
X186508571Y-43385619D02*
X186508571Y-42514761D01*
X186556952Y-42418000D01*
X186653714Y-42369619D01*
X186750476Y-42369619D01*
X187234285Y-43385619D02*
X187137523Y-43337238D01*
X187089142Y-43288857D01*
X187040761Y-43192095D01*
X187040761Y-42901809D01*
X187089142Y-42805047D01*
X187137523Y-42756666D01*
X187234285Y-42708285D01*
X187379428Y-42708285D01*
X187476190Y-42756666D01*
X187524571Y-42805047D01*
X187572952Y-42901809D01*
X187572952Y-43192095D01*
X187524571Y-43288857D01*
X187476190Y-43337238D01*
X187379428Y-43385619D01*
X187234285Y-43385619D01*
X188008380Y-43385619D02*
X188008380Y-42708285D01*
X188008380Y-42901809D02*
X188056761Y-42805047D01*
X188105142Y-42756666D01*
X188201904Y-42708285D01*
X188298666Y-42708285D01*
X189411428Y-43385619D02*
X189411428Y-42369619D01*
X189750095Y-43095333D01*
X190088761Y-42369619D01*
X190088761Y-43385619D01*
X191008000Y-43385619D02*
X191008000Y-42853428D01*
X190959619Y-42756666D01*
X190862857Y-42708285D01*
X190669333Y-42708285D01*
X190572571Y-42756666D01*
X191008000Y-43337238D02*
X190911238Y-43385619D01*
X190669333Y-43385619D01*
X190572571Y-43337238D01*
X190524190Y-43240476D01*
X190524190Y-43143714D01*
X190572571Y-43046952D01*
X190669333Y-42998571D01*
X190911238Y-42998571D01*
X191008000Y-42950190D01*
X191927238Y-43337238D02*
X191830476Y-43385619D01*
X191636952Y-43385619D01*
X191540190Y-43337238D01*
X191491809Y-43288857D01*
X191443428Y-43192095D01*
X191443428Y-42901809D01*
X191491809Y-42805047D01*
X191540190Y-42756666D01*
X191636952Y-42708285D01*
X191830476Y-42708285D01*
X191927238Y-42756666D01*
X192362666Y-43385619D02*
X192362666Y-42708285D01*
X192362666Y-42369619D02*
X192314285Y-42418000D01*
X192362666Y-42466380D01*
X192411047Y-42418000D01*
X192362666Y-42369619D01*
X192362666Y-42466380D01*
X192846476Y-42708285D02*
X192846476Y-43385619D01*
X192846476Y-42805047D02*
X192894857Y-42756666D01*
X192991619Y-42708285D01*
X193136761Y-42708285D01*
X193233523Y-42756666D01*
X193281904Y-42853428D01*
X193281904Y-43385619D01*
X193620571Y-42708285D02*
X194007619Y-42708285D01*
X193765714Y-42369619D02*
X193765714Y-43240476D01*
X193814095Y-43337238D01*
X193910857Y-43385619D01*
X194007619Y-43385619D01*
X194491428Y-43385619D02*
X194394666Y-43337238D01*
X194346285Y-43288857D01*
X194297904Y-43192095D01*
X194297904Y-42901809D01*
X194346285Y-42805047D01*
X194394666Y-42756666D01*
X194491428Y-42708285D01*
X194636571Y-42708285D01*
X194733333Y-42756666D01*
X194781714Y-42805047D01*
X194830095Y-42901809D01*
X194830095Y-43192095D01*
X194781714Y-43288857D01*
X194733333Y-43337238D01*
X194636571Y-43385619D01*
X194491428Y-43385619D01*
X195217142Y-43337238D02*
X195313904Y-43385619D01*
X195507428Y-43385619D01*
X195604190Y-43337238D01*
X195652571Y-43240476D01*
X195652571Y-43192095D01*
X195604190Y-43095333D01*
X195507428Y-43046952D01*
X195362285Y-43046952D01*
X195265523Y-42998571D01*
X195217142Y-42901809D01*
X195217142Y-42853428D01*
X195265523Y-42756666D01*
X195362285Y-42708285D01*
X195507428Y-42708285D01*
X195604190Y-42756666D01*
X196088000Y-43385619D02*
X196088000Y-42369619D01*
X196523428Y-43385619D02*
X196523428Y-42853428D01*
X196475047Y-42756666D01*
X196378285Y-42708285D01*
X196233142Y-42708285D01*
X196136380Y-42756666D01*
X196088000Y-42805047D01*
D12*
X169691571Y-42366500D02*
X169548714Y-42295071D01*
X169334428Y-42295071D01*
X169120142Y-42366500D01*
X168977285Y-42509357D01*
X168905857Y-42652214D01*
X168834428Y-42937928D01*
X168834428Y-43152214D01*
X168905857Y-43437928D01*
X168977285Y-43580785D01*
X169120142Y-43723642D01*
X169334428Y-43795071D01*
X169477285Y-43795071D01*
X169691571Y-43723642D01*
X169763000Y-43652214D01*
X169763000Y-43152214D01*
X169477285Y-43152214D01*
X170263000Y-42295071D02*
X170620142Y-43795071D01*
X170905857Y-42723642D01*
X171191571Y-43795071D01*
X171548714Y-42295071D01*
X189484000Y-39805428D02*
X189846857Y-41329428D01*
X190137142Y-40240857D01*
X190427428Y-41329428D01*
X190790285Y-39805428D01*
X191370857Y-41329428D02*
X191370857Y-40313428D01*
X191370857Y-39805428D02*
X191298285Y-39878000D01*
X191370857Y-39950571D01*
X191443428Y-39878000D01*
X191370857Y-39805428D01*
X191370857Y-39950571D01*
X192604571Y-40531142D02*
X192096571Y-40531142D01*
X192096571Y-41329428D02*
X192096571Y-39805428D01*
X192822285Y-39805428D01*
X193402857Y-41329428D02*
X193402857Y-40313428D01*
X193402857Y-39805428D02*
X193330285Y-39878000D01*
X193402857Y-39950571D01*
X193475428Y-39878000D01*
X193402857Y-39805428D01*
X193402857Y-39950571D01*
X173153000Y-42858571D02*
X173153000Y-43858571D01*
X172795857Y-42287142D02*
X172438714Y-43358571D01*
X173367285Y-43358571D01*
X174581571Y-42858571D02*
X174581571Y-43858571D01*
X174224428Y-42287142D02*
X173867285Y-43358571D01*
X174795857Y-43358571D01*
X175653000Y-42358571D02*
X175795857Y-42358571D01*
X175938714Y-42430000D01*
X176010142Y-42501428D01*
X176081571Y-42644285D01*
X176153000Y-42930000D01*
X176153000Y-43287142D01*
X176081571Y-43572857D01*
X176010142Y-43715714D01*
X175938714Y-43787142D01*
X175795857Y-43858571D01*
X175653000Y-43858571D01*
X175510142Y-43787142D01*
X175438714Y-43715714D01*
X175367285Y-43572857D01*
X175295857Y-43287142D01*
X175295857Y-42930000D01*
X175367285Y-42644285D01*
X175438714Y-42501428D01*
X175510142Y-42430000D01*
X175653000Y-42358571D01*
X177010142Y-43001428D02*
X176867285Y-42930000D01*
X176795857Y-42858571D01*
X176724428Y-42715714D01*
X176724428Y-42644285D01*
X176795857Y-42501428D01*
X176867285Y-42430000D01*
X177010142Y-42358571D01*
X177295857Y-42358571D01*
X177438714Y-42430000D01*
X177510142Y-42501428D01*
X177581571Y-42644285D01*
X177581571Y-42715714D01*
X177510142Y-42858571D01*
X177438714Y-42930000D01*
X177295857Y-43001428D01*
X177010142Y-43001428D01*
X176867285Y-43072857D01*
X176795857Y-43144285D01*
X176724428Y-43287142D01*
X176724428Y-43572857D01*
X176795857Y-43715714D01*
X176867285Y-43787142D01*
X177010142Y-43858571D01*
X177295857Y-43858571D01*
X177438714Y-43787142D01*
X177510142Y-43715714D01*
X177581571Y-43572857D01*
X177581571Y-43287142D01*
X177510142Y-43144285D01*
X177438714Y-43072857D01*
X177295857Y-43001428D01*
X178153000Y-43430000D02*
X178867285Y-43430000D01*
X178010142Y-43858571D02*
X178510142Y-42358571D01*
X179010142Y-43858571D01*
%LPC*%
G36*
G01*
X229020000Y-53559000D02*
X229020000Y-52359000D01*
G75*
G02*
X229270000Y-52109000I250000J0D01*
G01*
X230470000Y-52109000D01*
G75*
G02*
X230720000Y-52359000I0J-250000D01*
G01*
X230720000Y-53559000D01*
G75*
G02*
X230470000Y-53809000I-250000J0D01*
G01*
X229270000Y-53809000D01*
G75*
G02*
X229020000Y-53559000I0J250000D01*
G01*
G37*
D13*
X229870000Y-55499000D03*
X229870000Y-58039000D03*
X229870000Y-60579000D03*
X229870000Y-63119000D03*
X232410000Y-52959000D03*
X232410000Y-55499000D03*
X232410000Y-58039000D03*
X232410000Y-60579000D03*
X232410000Y-63119000D03*
D14*
X167640000Y-134620000D03*
X78740000Y-134620000D03*
G36*
G01*
X163335000Y-131554998D02*
X163335000Y-132605002D01*
G75*
G02*
X163085002Y-132855000I-249998J0D01*
G01*
X162034998Y-132855000D01*
G75*
G02*
X161785000Y-132605002I0J249998D01*
G01*
X161785000Y-131554998D01*
G75*
G02*
X162034998Y-131305000I249998J0D01*
G01*
X163085002Y-131305000D01*
G75*
G02*
X163335000Y-131554998I0J-249998D01*
G01*
G37*
D15*
X160020000Y-132080000D03*
X157480000Y-132080000D03*
X154940000Y-132080000D03*
X152400000Y-132080000D03*
X149860000Y-132080000D03*
X147320000Y-132080000D03*
X144780000Y-132080000D03*
X142240000Y-132080000D03*
X139700000Y-132080000D03*
X137160000Y-132080000D03*
X134620000Y-132080000D03*
X132080000Y-132080000D03*
X129540000Y-132080000D03*
X127000000Y-132080000D03*
X124460000Y-132080000D03*
X121920000Y-132080000D03*
X119380000Y-132080000D03*
X116840000Y-132080000D03*
X114300000Y-132080000D03*
X111760000Y-132080000D03*
X109220000Y-132080000D03*
X106680000Y-132080000D03*
X104140000Y-132080000D03*
X101600000Y-132080000D03*
X99060000Y-132080000D03*
X96520000Y-132080000D03*
X93980000Y-132080000D03*
X91440000Y-132080000D03*
X88900000Y-132080000D03*
X86360000Y-132080000D03*
X83820000Y-132080000D03*
X162560000Y-129540000D03*
X160020000Y-129540000D03*
X157480000Y-129540000D03*
X154940000Y-129540000D03*
X152400000Y-129540000D03*
X149860000Y-129540000D03*
X147320000Y-129540000D03*
X144780000Y-129540000D03*
X142240000Y-129540000D03*
X139700000Y-129540000D03*
X137160000Y-129540000D03*
X134620000Y-129540000D03*
X132080000Y-129540000D03*
X129540000Y-129540000D03*
X127000000Y-129540000D03*
X124460000Y-129540000D03*
X121920000Y-129540000D03*
X119380000Y-129540000D03*
X116840000Y-129540000D03*
X114300000Y-129540000D03*
X111760000Y-129540000D03*
X109220000Y-129540000D03*
X106680000Y-129540000D03*
X104140000Y-129540000D03*
X101600000Y-129540000D03*
X99060000Y-129540000D03*
X96520000Y-129540000D03*
X93980000Y-129540000D03*
X91440000Y-129540000D03*
X88900000Y-129540000D03*
X86360000Y-129540000D03*
X83820000Y-129540000D03*
X162560000Y-127000000D03*
X160020000Y-127000000D03*
X157480000Y-127000000D03*
X154940000Y-127000000D03*
X152400000Y-127000000D03*
X149860000Y-127000000D03*
X147320000Y-127000000D03*
X144780000Y-127000000D03*
X142240000Y-127000000D03*
X139700000Y-127000000D03*
X137160000Y-127000000D03*
X134620000Y-127000000D03*
X132080000Y-127000000D03*
X129540000Y-127000000D03*
X127000000Y-127000000D03*
X124460000Y-127000000D03*
X121920000Y-127000000D03*
X119380000Y-127000000D03*
X116840000Y-127000000D03*
X114300000Y-127000000D03*
X111760000Y-127000000D03*
X109220000Y-127000000D03*
X106680000Y-127000000D03*
X104140000Y-127000000D03*
X101600000Y-127000000D03*
X99060000Y-127000000D03*
X96520000Y-127000000D03*
X93980000Y-127000000D03*
X91440000Y-127000000D03*
X88900000Y-127000000D03*
X86360000Y-127000000D03*
X83820000Y-127000000D03*
D16*
X230759000Y-39878000D03*
D17*
X233159000Y-39878000D03*
X232456056Y-41575056D03*
X230759000Y-42278000D03*
X229061944Y-41575056D03*
X228359000Y-39878000D03*
X229061944Y-38180944D03*
X230759000Y-37478000D03*
X232456056Y-38180944D03*
X232456056Y-125429944D03*
X230759000Y-124727000D03*
X229061944Y-125429944D03*
X228359000Y-127127000D03*
X229061944Y-128824056D03*
X230759000Y-129527000D03*
X232456056Y-128824056D03*
X233159000Y-127127000D03*
D16*
X230759000Y-127127000D03*
D18*
X183007000Y-91440000D03*
D19*
X198247000Y-129540000D03*
X183007000Y-93980000D03*
X198247000Y-127000000D03*
X183007000Y-96520000D03*
X198247000Y-124460000D03*
X183007000Y-99060000D03*
X198247000Y-121920000D03*
X183007000Y-101600000D03*
X198247000Y-119380000D03*
X183007000Y-104140000D03*
X198247000Y-116840000D03*
X183007000Y-106680000D03*
X198247000Y-114300000D03*
X183007000Y-109220000D03*
X198247000Y-111760000D03*
X183007000Y-111760000D03*
X198247000Y-109220000D03*
X183007000Y-114300000D03*
X198247000Y-106680000D03*
X183007000Y-116840000D03*
X198247000Y-104140000D03*
X183007000Y-119380000D03*
X198247000Y-101600000D03*
X183007000Y-121920000D03*
X198247000Y-99060000D03*
X183007000Y-124460000D03*
X198247000Y-96520000D03*
X183007000Y-127000000D03*
X198247000Y-93980000D03*
X183007000Y-129540000D03*
X198247000Y-91440000D03*
D20*
X215650000Y-41850000D03*
X207650000Y-41850000D03*
D21*
X71120000Y-134620000D03*
X235077000Y-135509000D03*
X234950000Y-42418000D03*
X70993000Y-38100000D03*
D22*
X234500000Y-106250000D03*
X234500000Y-113450000D03*
D23*
X231850000Y-107425000D03*
X231850000Y-112275000D03*
M02*
