G04 #@! TF.GenerationSoftware,KiCad,Pcbnew,(6.0.2-0)*
G04 #@! TF.CreationDate,2022-04-19T10:06:04-04:00*
G04 #@! TF.ProjectId,NuBus-ESP32,4e754275-732d-4455-9350-33322e6b6963,rev?*
G04 #@! TF.SameCoordinates,Original*
G04 #@! TF.FileFunction,Legend,Bot*
G04 #@! TF.FilePolarity,Positive*
%FSLAX46Y46*%
G04 Gerber Fmt 4.6, Leading zero omitted, Abs format (unit mm)*
G04 Created by KiCad (PCBNEW (6.0.2-0)) date 2022-04-19 10:06:04*
%MOMM*%
%LPD*%
G01*
G04 APERTURE LIST*
G04 Aperture macros list*
%AMRoundRect*
0 Rectangle with rounded corners*
0 $1 Rounding radius*
0 $2 $3 $4 $5 $6 $7 $8 $9 X,Y pos of 4 corners*
0 Add a 4 corners polygon primitive as box body*
4,1,4,$2,$3,$4,$5,$6,$7,$8,$9,$2,$3,0*
0 Add four circle primitives for the rounded corners*
1,1,$1+$1,$2,$3*
1,1,$1+$1,$4,$5*
1,1,$1+$1,$6,$7*
1,1,$1+$1,$8,$9*
0 Add four rect primitives between the rounded corners*
20,1,$1+$1,$2,$3,$4,$5,0*
20,1,$1+$1,$4,$5,$6,$7,0*
20,1,$1+$1,$6,$7,$8,$9,0*
20,1,$1+$1,$8,$9,$2,$3,0*%
G04 Aperture macros list end*
%ADD10RoundRect,0.250000X-0.600000X-0.600000X0.600000X-0.600000X0.600000X0.600000X-0.600000X0.600000X0*%
%ADD11C,1.700000*%
%ADD12C,2.850000*%
%ADD13RoundRect,0.249999X0.525001X0.525001X-0.525001X0.525001X-0.525001X-0.525001X0.525001X-0.525001X0*%
%ADD14C,1.550000*%
%ADD15R,2.400000X1.600000*%
%ADD16O,2.400000X1.600000*%
%ADD17C,0.800000*%
%ADD18C,6.400000*%
%ADD19C,1.400000*%
%ADD20O,2.000000X1.170000*%
%ADD21C,1.448000*%
%ADD22C,1.100000*%
G04 APERTURE END LIST*
%LPC*%
D10*
X229870000Y-52959000D03*
D11*
X232410000Y-52959000D03*
X229870000Y-55499000D03*
X232410000Y-55499000D03*
X229870000Y-58039000D03*
X232410000Y-58039000D03*
X229870000Y-60579000D03*
X232410000Y-60579000D03*
X229870000Y-63119000D03*
X232410000Y-63119000D03*
D12*
X78740000Y-134620000D03*
X167640000Y-134620000D03*
D13*
X162560000Y-132080000D03*
D14*
X160020000Y-132080000D03*
X157480000Y-132080000D03*
X154940000Y-132080000D03*
X152400000Y-132080000D03*
X149860000Y-132080000D03*
X147320000Y-132080000D03*
X144780000Y-132080000D03*
X142240000Y-132080000D03*
X139700000Y-132080000D03*
X137160000Y-132080000D03*
X134620000Y-132080000D03*
X132080000Y-132080000D03*
X129540000Y-132080000D03*
X127000000Y-132080000D03*
X124460000Y-132080000D03*
X121920000Y-132080000D03*
X119380000Y-132080000D03*
X116840000Y-132080000D03*
X114300000Y-132080000D03*
X111760000Y-132080000D03*
X109220000Y-132080000D03*
X106680000Y-132080000D03*
X104140000Y-132080000D03*
X101600000Y-132080000D03*
X99060000Y-132080000D03*
X96520000Y-132080000D03*
X93980000Y-132080000D03*
X91440000Y-132080000D03*
X88900000Y-132080000D03*
X86360000Y-132080000D03*
X83820000Y-132080000D03*
X162560000Y-129540000D03*
X160020000Y-129540000D03*
X157480000Y-129540000D03*
X154940000Y-129540000D03*
X152400000Y-129540000D03*
X149860000Y-129540000D03*
X147320000Y-129540000D03*
X144780000Y-129540000D03*
X142240000Y-129540000D03*
X139700000Y-129540000D03*
X137160000Y-129540000D03*
X134620000Y-129540000D03*
X132080000Y-129540000D03*
X129540000Y-129540000D03*
X127000000Y-129540000D03*
X124460000Y-129540000D03*
X121920000Y-129540000D03*
X119380000Y-129540000D03*
X116840000Y-129540000D03*
X114300000Y-129540000D03*
X111760000Y-129540000D03*
X109220000Y-129540000D03*
X106680000Y-129540000D03*
X104140000Y-129540000D03*
X101600000Y-129540000D03*
X99060000Y-129540000D03*
X96520000Y-129540000D03*
X93980000Y-129540000D03*
X91440000Y-129540000D03*
X88900000Y-129540000D03*
X86360000Y-129540000D03*
X83820000Y-129540000D03*
X162560000Y-127000000D03*
X160020000Y-127000000D03*
X157480000Y-127000000D03*
X154940000Y-127000000D03*
X152400000Y-127000000D03*
X149860000Y-127000000D03*
X147320000Y-127000000D03*
X144780000Y-127000000D03*
X142240000Y-127000000D03*
X139700000Y-127000000D03*
X137160000Y-127000000D03*
X134620000Y-127000000D03*
X132080000Y-127000000D03*
X129540000Y-127000000D03*
X127000000Y-127000000D03*
X124460000Y-127000000D03*
X121920000Y-127000000D03*
X119380000Y-127000000D03*
X116840000Y-127000000D03*
X114300000Y-127000000D03*
X111760000Y-127000000D03*
X109220000Y-127000000D03*
X106680000Y-127000000D03*
X104140000Y-127000000D03*
X101600000Y-127000000D03*
X99060000Y-127000000D03*
X96520000Y-127000000D03*
X93980000Y-127000000D03*
X91440000Y-127000000D03*
X88900000Y-127000000D03*
X86360000Y-127000000D03*
X83820000Y-127000000D03*
D15*
X183007000Y-91440000D03*
D16*
X183007000Y-93980000D03*
X183007000Y-96520000D03*
X183007000Y-99060000D03*
X183007000Y-101600000D03*
X183007000Y-104140000D03*
X183007000Y-106680000D03*
X183007000Y-109220000D03*
X183007000Y-111760000D03*
X183007000Y-114300000D03*
X183007000Y-116840000D03*
X183007000Y-119380000D03*
X183007000Y-121920000D03*
X183007000Y-124460000D03*
X183007000Y-127000000D03*
X183007000Y-129540000D03*
X198247000Y-129540000D03*
X198247000Y-127000000D03*
X198247000Y-124460000D03*
X198247000Y-121920000D03*
X198247000Y-119380000D03*
X198247000Y-116840000D03*
X198247000Y-114300000D03*
X198247000Y-111760000D03*
X198247000Y-109220000D03*
X198247000Y-106680000D03*
X198247000Y-104140000D03*
X198247000Y-101600000D03*
X198247000Y-99060000D03*
X198247000Y-96520000D03*
X198247000Y-93980000D03*
X198247000Y-91440000D03*
D17*
X230759000Y-124727000D03*
D18*
X230759000Y-127127000D03*
D17*
X230759000Y-129527000D03*
X232456056Y-125429944D03*
X229061944Y-128824056D03*
X228359000Y-127127000D03*
X229061944Y-125429944D03*
X232456056Y-128824056D03*
X233159000Y-127127000D03*
X232456056Y-41575056D03*
X232456056Y-38180944D03*
X230759000Y-42278000D03*
X229061944Y-41575056D03*
X233159000Y-39878000D03*
X229061944Y-38180944D03*
X228359000Y-39878000D03*
D18*
X230759000Y-39878000D03*
D17*
X230759000Y-37478000D03*
D19*
X231850000Y-112275000D03*
X231850000Y-107425000D03*
D20*
X234500000Y-113450000D03*
X234500000Y-106250000D03*
D21*
X70993000Y-38100000D03*
X234950000Y-42418000D03*
X235077000Y-135509000D03*
X71120000Y-134620000D03*
D22*
X207650000Y-41850000D03*
X215650000Y-41850000D03*
M02*
