G04 #@! TF.GenerationSoftware,KiCad,Pcbnew,(6.0.2-0)*
G04 #@! TF.CreationDate,2022-04-19T10:06:04-04:00*
G04 #@! TF.ProjectId,NuBus-ESP32,4e754275-732d-4455-9350-33322e6b6963,rev?*
G04 #@! TF.SameCoordinates,Original*
G04 #@! TF.FileFunction,Paste,Top*
G04 #@! TF.FilePolarity,Positive*
%FSLAX46Y46*%
G04 Gerber Fmt 4.6, Leading zero omitted, Abs format (unit mm)*
G04 Created by KiCad (PCBNEW (6.0.2-0)) date 2022-04-19 10:06:04*
%MOMM*%
%LPD*%
G01*
G04 APERTURE LIST*
G04 Aperture macros list*
%AMRoundRect*
0 Rectangle with rounded corners*
0 $1 Rounding radius*
0 $2 $3 $4 $5 $6 $7 $8 $9 X,Y pos of 4 corners*
0 Add a 4 corners polygon primitive as box body*
4,1,4,$2,$3,$4,$5,$6,$7,$8,$9,$2,$3,0*
0 Add four circle primitives for the rounded corners*
1,1,$1+$1,$2,$3*
1,1,$1+$1,$4,$5*
1,1,$1+$1,$6,$7*
1,1,$1+$1,$8,$9*
0 Add four rect primitives between the rounded corners*
20,1,$1+$1,$2,$3,$4,$5,0*
20,1,$1+$1,$4,$5,$6,$7,0*
20,1,$1+$1,$6,$7,$8,$9,0*
20,1,$1+$1,$8,$9,$2,$3,0*%
G04 Aperture macros list end*
%ADD10RoundRect,0.187500X0.487500X-0.212500X0.487500X0.212500X-0.487500X0.212500X-0.487500X-0.212500X0*%
%ADD11RoundRect,0.125000X0.150000X-0.825000X0.150000X0.825000X-0.150000X0.825000X-0.150000X-0.825000X0*%
%ADD12O,0.800000X2.400000*%
%ADD13R,0.400000X2.900000*%
%ADD14R,1.400000X1.400000*%
%ADD15R,2.900000X0.400000*%
%ADD16RoundRect,0.187500X-0.212500X-0.487500X0.212500X-0.487500X0.212500X0.487500X-0.212500X0.487500X0*%
%ADD17RoundRect,0.187500X0.212500X0.487500X-0.212500X0.487500X-0.212500X-0.487500X0.212500X-0.487500X0*%
%ADD18RoundRect,0.237500X-0.262500X-0.437500X0.262500X-0.437500X0.262500X0.437500X-0.262500X0.437500X0*%
%ADD19RoundRect,0.237500X-0.437500X0.262500X-0.437500X-0.262500X0.437500X-0.262500X0.437500X0.262500X0*%
%ADD20RoundRect,0.237500X0.262500X0.437500X-0.262500X0.437500X-0.262500X-0.437500X0.262500X-0.437500X0*%
%ADD21RoundRect,0.125000X0.150000X-0.875000X0.150000X0.875000X-0.150000X0.875000X-0.150000X-0.875000X0*%
%ADD22RoundRect,0.237500X0.437500X-0.262500X0.437500X0.262500X-0.437500X0.262500X-0.437500X-0.262500X0*%
%ADD23RoundRect,0.450000X0.500000X-1.750000X0.500000X1.750000X-0.500000X1.750000X-0.500000X-1.750000X0*%
%ADD24RoundRect,0.125000X-0.825000X-0.150000X0.825000X-0.150000X0.825000X0.150000X-0.825000X0.150000X0*%
%ADD25RoundRect,0.125000X-0.150000X-0.587500X0.150000X-0.587500X0.150000X0.587500X-0.150000X0.587500X0*%
%ADD26RoundRect,0.125000X-0.587500X-0.150000X0.587500X-0.150000X0.587500X0.150000X-0.587500X0.150000X0*%
%ADD27RoundRect,0.030000X0.545000X-0.120000X0.545000X0.120000X-0.545000X0.120000X-0.545000X-0.120000X0*%
%ADD28RoundRect,0.125000X0.525000X-0.150000X0.525000X0.150000X-0.525000X0.150000X-0.525000X-0.150000X0*%
%ADD29RoundRect,0.187500X-0.487500X0.212500X-0.487500X-0.212500X0.487500X-0.212500X0.487500X0.212500X0*%
%ADD30RoundRect,0.250000X0.450000X-0.700000X0.450000X0.700000X-0.450000X0.700000X-0.450000X-0.700000X0*%
%ADD31RoundRect,0.250000X1.600000X-0.700000X1.600000X0.700000X-1.600000X0.700000X-1.600000X-0.700000X0*%
%ADD32RoundRect,0.150000X-0.475000X-0.200000X0.475000X-0.200000X0.475000X0.200000X-0.475000X0.200000X0*%
%ADD33RoundRect,0.150000X0.200000X-0.475000X0.200000X0.475000X-0.200000X0.475000X-0.200000X-0.475000X0*%
%ADD34RoundRect,0.150000X-0.200000X0.475000X-0.200000X-0.475000X0.200000X-0.475000X0.200000X0.475000X0*%
%ADD35RoundRect,0.125000X0.175000X0.625000X-0.175000X0.625000X-0.175000X-0.625000X0.175000X-0.625000X0*%
%ADD36RoundRect,0.325000X0.425000X0.375000X-0.425000X0.375000X-0.425000X-0.375000X0.425000X-0.375000X0*%
%ADD37RoundRect,0.250000X0.300000X0.800000X-0.300000X0.800000X-0.300000X-0.800000X0.300000X-0.800000X0*%
%ADD38RoundRect,0.250000X0.300000X0.450000X-0.300000X0.450000X-0.300000X-0.450000X0.300000X-0.450000X0*%
G04 APERTURE END LIST*
D10*
X206438500Y-85471000D03*
X206438500Y-83571000D03*
D11*
X78740000Y-111060000D03*
X80010000Y-111060000D03*
X81280000Y-111060000D03*
X82550000Y-111060000D03*
X83820000Y-111060000D03*
X85090000Y-111060000D03*
X86360000Y-111060000D03*
X86360000Y-106110000D03*
X85090000Y-106110000D03*
X83820000Y-106110000D03*
X82550000Y-106110000D03*
X81280000Y-106110000D03*
X80010000Y-106110000D03*
X78740000Y-106110000D03*
D12*
X261048500Y-78245000D03*
X259778500Y-78245000D03*
X258508500Y-78245000D03*
X257238500Y-78245000D03*
X255968500Y-78245000D03*
X254698500Y-78245000D03*
X253428500Y-78245000D03*
X252158500Y-78245000D03*
X250888500Y-78245000D03*
X249618500Y-78245000D03*
X248348500Y-78245000D03*
X247078500Y-78245000D03*
X245808500Y-78245000D03*
X244538500Y-78245000D03*
X243268500Y-78245000D03*
X241998500Y-78245000D03*
X240728500Y-78245000D03*
X239458500Y-78245000D03*
X238188500Y-78245000D03*
X238188500Y-95745000D03*
X239458500Y-95745000D03*
X240728500Y-95745000D03*
X241998500Y-95745000D03*
X243268500Y-95745000D03*
X244538500Y-95745000D03*
X245808500Y-95745000D03*
X247078500Y-95745000D03*
X248348500Y-95745000D03*
X249618500Y-95745000D03*
X250888500Y-95745000D03*
X252158500Y-95745000D03*
X253428500Y-95745000D03*
X254698500Y-95745000D03*
X255968500Y-95745000D03*
X257238500Y-95745000D03*
X258508500Y-95745000D03*
X259778500Y-95745000D03*
X261048500Y-95745000D03*
D13*
X251486500Y-85995000D03*
D14*
X253518500Y-85995000D03*
D13*
X255550500Y-85995000D03*
D15*
X253518500Y-88154000D03*
X253518500Y-83963000D03*
D10*
X225171000Y-63246000D03*
X225171000Y-61346000D03*
D16*
X230950000Y-81650000D03*
X232850000Y-81650000D03*
D17*
X232850000Y-100850000D03*
X230950000Y-100850000D03*
D18*
X165735000Y-128778000D03*
X167435000Y-128778000D03*
D16*
X82809000Y-64643000D03*
X84709000Y-64643000D03*
D19*
X76835000Y-97155000D03*
X76835000Y-98855000D03*
X76835000Y-88265000D03*
X76835000Y-89965000D03*
D20*
X148590000Y-44831000D03*
X146890000Y-44831000D03*
D21*
X118110000Y-117680000D03*
X119380000Y-117680000D03*
X120650000Y-117680000D03*
X121920000Y-117680000D03*
X123190000Y-117680000D03*
X124460000Y-117680000D03*
X125730000Y-117680000D03*
X127000000Y-117680000D03*
X128270000Y-117680000D03*
X129540000Y-117680000D03*
X129540000Y-108380000D03*
X128270000Y-108380000D03*
X127000000Y-108380000D03*
X125730000Y-108380000D03*
X124460000Y-108380000D03*
X123190000Y-108380000D03*
X121920000Y-108380000D03*
X120650000Y-108380000D03*
X119380000Y-108380000D03*
X118110000Y-108380000D03*
D20*
X163830000Y-90551000D03*
X162130000Y-90551000D03*
X163830000Y-75311000D03*
X162130000Y-75311000D03*
D21*
X102870000Y-87200000D03*
X104140000Y-87200000D03*
X105410000Y-87200000D03*
X106680000Y-87200000D03*
X107950000Y-87200000D03*
X109220000Y-87200000D03*
X110490000Y-87200000D03*
X111760000Y-87200000D03*
X113030000Y-87200000D03*
X114300000Y-87200000D03*
X114300000Y-77900000D03*
X113030000Y-77900000D03*
X111760000Y-77900000D03*
X110490000Y-77900000D03*
X109220000Y-77900000D03*
X107950000Y-77900000D03*
X106680000Y-77900000D03*
X105410000Y-77900000D03*
X104140000Y-77900000D03*
X102870000Y-77900000D03*
X102870000Y-117680000D03*
X104140000Y-117680000D03*
X105410000Y-117680000D03*
X106680000Y-117680000D03*
X107950000Y-117680000D03*
X109220000Y-117680000D03*
X110490000Y-117680000D03*
X111760000Y-117680000D03*
X113030000Y-117680000D03*
X114300000Y-117680000D03*
X114300000Y-108380000D03*
X113030000Y-108380000D03*
X111760000Y-108380000D03*
X110490000Y-108380000D03*
X109220000Y-108380000D03*
X107950000Y-108380000D03*
X106680000Y-108380000D03*
X105410000Y-108380000D03*
X104140000Y-108380000D03*
X102870000Y-108380000D03*
X163830000Y-87200000D03*
X165100000Y-87200000D03*
X166370000Y-87200000D03*
X167640000Y-87200000D03*
X168910000Y-87200000D03*
X170180000Y-87200000D03*
X171450000Y-87200000D03*
X172720000Y-87200000D03*
X173990000Y-87200000D03*
X175260000Y-87200000D03*
X175260000Y-77900000D03*
X173990000Y-77900000D03*
X172720000Y-77900000D03*
X171450000Y-77900000D03*
X170180000Y-77900000D03*
X168910000Y-77900000D03*
X167640000Y-77900000D03*
X166370000Y-77900000D03*
X165100000Y-77900000D03*
X163830000Y-77900000D03*
D17*
X232850000Y-98250000D03*
X230950000Y-98250000D03*
D11*
X78740000Y-119950000D03*
X80010000Y-119950000D03*
X81280000Y-119950000D03*
X82550000Y-119950000D03*
X83820000Y-119950000D03*
X85090000Y-119950000D03*
X86360000Y-119950000D03*
X86360000Y-115000000D03*
X85090000Y-115000000D03*
X83820000Y-115000000D03*
X82550000Y-115000000D03*
X81280000Y-115000000D03*
X80010000Y-115000000D03*
X78740000Y-115000000D03*
X165735000Y-60895000D03*
X167005000Y-60895000D03*
X168275000Y-60895000D03*
X169545000Y-60895000D03*
X170815000Y-60895000D03*
X172085000Y-60895000D03*
X173355000Y-60895000D03*
X173355000Y-55945000D03*
X172085000Y-55945000D03*
X170815000Y-55945000D03*
X169545000Y-55945000D03*
X168275000Y-55945000D03*
X167005000Y-55945000D03*
X165735000Y-55945000D03*
D19*
X163957000Y-66040000D03*
X163957000Y-67740000D03*
D11*
X165735000Y-71055000D03*
X167005000Y-71055000D03*
X168275000Y-71055000D03*
X169545000Y-71055000D03*
X170815000Y-71055000D03*
X172085000Y-71055000D03*
X173355000Y-71055000D03*
X173355000Y-66105000D03*
X172085000Y-66105000D03*
X170815000Y-66105000D03*
X169545000Y-66105000D03*
X168275000Y-66105000D03*
X167005000Y-66105000D03*
X165735000Y-66105000D03*
D21*
X148590000Y-117680000D03*
X149860000Y-117680000D03*
X151130000Y-117680000D03*
X152400000Y-117680000D03*
X153670000Y-117680000D03*
X154940000Y-117680000D03*
X156210000Y-117680000D03*
X157480000Y-117680000D03*
X158750000Y-117680000D03*
X160020000Y-117680000D03*
X160020000Y-108380000D03*
X158750000Y-108380000D03*
X157480000Y-108380000D03*
X156210000Y-108380000D03*
X154940000Y-108380000D03*
X153670000Y-108380000D03*
X152400000Y-108380000D03*
X151130000Y-108380000D03*
X149860000Y-108380000D03*
X148590000Y-108380000D03*
D19*
X163957000Y-55880000D03*
X163957000Y-57580000D03*
D18*
X191897000Y-66802000D03*
X193597000Y-66802000D03*
D20*
X88480000Y-124460000D03*
X86780000Y-124460000D03*
D21*
X133350000Y-71960000D03*
X134620000Y-71960000D03*
X135890000Y-71960000D03*
X137160000Y-71960000D03*
X138430000Y-71960000D03*
X139700000Y-71960000D03*
X140970000Y-71960000D03*
X142240000Y-71960000D03*
X143510000Y-71960000D03*
X144780000Y-71960000D03*
X144780000Y-62660000D03*
X143510000Y-62660000D03*
X142240000Y-62660000D03*
X140970000Y-62660000D03*
X139700000Y-62660000D03*
X138430000Y-62660000D03*
X137160000Y-62660000D03*
X135890000Y-62660000D03*
X134620000Y-62660000D03*
X133350000Y-62660000D03*
D19*
X165735000Y-119380000D03*
X165735000Y-121080000D03*
X165735000Y-109855000D03*
X165735000Y-111555000D03*
D20*
X117856000Y-105791000D03*
X116156000Y-105791000D03*
X118110000Y-90551000D03*
X116410000Y-90551000D03*
X133350000Y-90551000D03*
X131650000Y-90551000D03*
X148590000Y-90551000D03*
X146890000Y-90551000D03*
X133350000Y-105918000D03*
X131650000Y-105918000D03*
D22*
X209867500Y-105283000D03*
X209867500Y-103583000D03*
D23*
X206216000Y-110919000D03*
X206216000Y-102419000D03*
D11*
X90805000Y-84390000D03*
X92075000Y-84390000D03*
X93345000Y-84390000D03*
X94615000Y-84390000D03*
X95885000Y-84390000D03*
X97155000Y-84390000D03*
X98425000Y-84390000D03*
X98425000Y-79440000D03*
X97155000Y-79440000D03*
X95885000Y-79440000D03*
X94615000Y-79440000D03*
X93345000Y-79440000D03*
X92075000Y-79440000D03*
X90805000Y-79440000D03*
D20*
X118110000Y-75311000D03*
X116410000Y-75311000D03*
D21*
X102870000Y-102440000D03*
X104140000Y-102440000D03*
X105410000Y-102440000D03*
X106680000Y-102440000D03*
X107950000Y-102440000D03*
X109220000Y-102440000D03*
X110490000Y-102440000D03*
X111760000Y-102440000D03*
X113030000Y-102440000D03*
X114300000Y-102440000D03*
X114300000Y-93140000D03*
X113030000Y-93140000D03*
X111760000Y-93140000D03*
X110490000Y-93140000D03*
X109220000Y-93140000D03*
X107950000Y-93140000D03*
X106680000Y-93140000D03*
X105410000Y-93140000D03*
X104140000Y-93140000D03*
X102870000Y-93140000D03*
D20*
X102870000Y-75311000D03*
X101170000Y-75311000D03*
X148590000Y-105918000D03*
X146890000Y-105918000D03*
D11*
X78740000Y-102170000D03*
X80010000Y-102170000D03*
X81280000Y-102170000D03*
X82550000Y-102170000D03*
X83820000Y-102170000D03*
X85090000Y-102170000D03*
X86360000Y-102170000D03*
X86360000Y-97220000D03*
X85090000Y-97220000D03*
X83820000Y-97220000D03*
X82550000Y-97220000D03*
X81280000Y-97220000D03*
X80010000Y-97220000D03*
X78740000Y-97220000D03*
D20*
X259778500Y-74295000D03*
X258078500Y-74295000D03*
D18*
X254317500Y-74295000D03*
X256017500Y-74295000D03*
D21*
X118110000Y-87200000D03*
X119380000Y-87200000D03*
X120650000Y-87200000D03*
X121920000Y-87200000D03*
X123190000Y-87200000D03*
X124460000Y-87200000D03*
X125730000Y-87200000D03*
X127000000Y-87200000D03*
X128270000Y-87200000D03*
X129540000Y-87200000D03*
X129540000Y-77900000D03*
X128270000Y-77900000D03*
X127000000Y-77900000D03*
X125730000Y-77900000D03*
X124460000Y-77900000D03*
X123190000Y-77900000D03*
X121920000Y-77900000D03*
X120650000Y-77900000D03*
X119380000Y-77900000D03*
X118110000Y-77900000D03*
D19*
X76835000Y-114935000D03*
X76835000Y-116635000D03*
D11*
X90805000Y-102170000D03*
X92075000Y-102170000D03*
X93345000Y-102170000D03*
X94615000Y-102170000D03*
X95885000Y-102170000D03*
X97155000Y-102170000D03*
X98425000Y-102170000D03*
X98425000Y-97220000D03*
X97155000Y-97220000D03*
X95885000Y-97220000D03*
X94615000Y-97220000D03*
X93345000Y-97220000D03*
X92075000Y-97220000D03*
X90805000Y-97220000D03*
X78740000Y-84390000D03*
X80010000Y-84390000D03*
X81280000Y-84390000D03*
X82550000Y-84390000D03*
X83820000Y-84390000D03*
X85090000Y-84390000D03*
X86360000Y-84390000D03*
X86360000Y-79440000D03*
X85090000Y-79440000D03*
X83820000Y-79440000D03*
X82550000Y-79440000D03*
X81280000Y-79440000D03*
X80010000Y-79440000D03*
X78740000Y-79440000D03*
X78740000Y-93280000D03*
X80010000Y-93280000D03*
X81280000Y-93280000D03*
X82550000Y-93280000D03*
X83820000Y-93280000D03*
X85090000Y-93280000D03*
X86360000Y-93280000D03*
X86360000Y-88330000D03*
X85090000Y-88330000D03*
X83820000Y-88330000D03*
X82550000Y-88330000D03*
X81280000Y-88330000D03*
X80010000Y-88330000D03*
X78740000Y-88330000D03*
D19*
X88900000Y-97155000D03*
X88900000Y-98855000D03*
X76835000Y-70485000D03*
X76835000Y-72185000D03*
D24*
X212409000Y-101473000D03*
X212409000Y-102743000D03*
X212409000Y-104013000D03*
X212409000Y-105283000D03*
X212409000Y-106553000D03*
X212409000Y-107823000D03*
X212409000Y-109093000D03*
X212409000Y-110363000D03*
X217359000Y-110363000D03*
X217359000Y-109093000D03*
X217359000Y-107823000D03*
X217359000Y-106553000D03*
X217359000Y-105283000D03*
X217359000Y-104013000D03*
X217359000Y-102743000D03*
X217359000Y-101473000D03*
D21*
X133350000Y-87200000D03*
X134620000Y-87200000D03*
X135890000Y-87200000D03*
X137160000Y-87200000D03*
X138430000Y-87200000D03*
X139700000Y-87200000D03*
X140970000Y-87200000D03*
X142240000Y-87200000D03*
X143510000Y-87200000D03*
X144780000Y-87200000D03*
X144780000Y-77900000D03*
X143510000Y-77900000D03*
X142240000Y-77900000D03*
X140970000Y-77900000D03*
X139700000Y-77900000D03*
X138430000Y-77900000D03*
X137160000Y-77900000D03*
X135890000Y-77900000D03*
X134620000Y-77900000D03*
X133350000Y-77900000D03*
D20*
X214750000Y-133350000D03*
X213050000Y-133350000D03*
X217360500Y-99631500D03*
X215660500Y-99631500D03*
D19*
X202565000Y-102362000D03*
X202565000Y-104062000D03*
D21*
X118110000Y-102440000D03*
X119380000Y-102440000D03*
X120650000Y-102440000D03*
X121920000Y-102440000D03*
X123190000Y-102440000D03*
X124460000Y-102440000D03*
X125730000Y-102440000D03*
X127000000Y-102440000D03*
X128270000Y-102440000D03*
X129540000Y-102440000D03*
X129540000Y-93140000D03*
X128270000Y-93140000D03*
X127000000Y-93140000D03*
X125730000Y-93140000D03*
X124460000Y-93140000D03*
X123190000Y-93140000D03*
X121920000Y-93140000D03*
X120650000Y-93140000D03*
X119380000Y-93140000D03*
X118110000Y-93140000D03*
X133350000Y-102440000D03*
X134620000Y-102440000D03*
X135890000Y-102440000D03*
X137160000Y-102440000D03*
X138430000Y-102440000D03*
X139700000Y-102440000D03*
X140970000Y-102440000D03*
X142240000Y-102440000D03*
X143510000Y-102440000D03*
X144780000Y-102440000D03*
X144780000Y-93140000D03*
X143510000Y-93140000D03*
X142240000Y-93140000D03*
X140970000Y-93140000D03*
X139700000Y-93140000D03*
X138430000Y-93140000D03*
X137160000Y-93140000D03*
X135890000Y-93140000D03*
X134620000Y-93140000D03*
X133350000Y-93140000D03*
D11*
X167640000Y-114870000D03*
X168910000Y-114870000D03*
X170180000Y-114870000D03*
X171450000Y-114870000D03*
X172720000Y-114870000D03*
X173990000Y-114870000D03*
X175260000Y-114870000D03*
X175260000Y-109920000D03*
X173990000Y-109920000D03*
X172720000Y-109920000D03*
X171450000Y-109920000D03*
X170180000Y-109920000D03*
X168910000Y-109920000D03*
X167640000Y-109920000D03*
D19*
X76835000Y-106045000D03*
X76835000Y-107745000D03*
X88900000Y-106045000D03*
X88900000Y-107745000D03*
X88900000Y-114935000D03*
X88900000Y-116635000D03*
D11*
X90805000Y-119950000D03*
X92075000Y-119950000D03*
X93345000Y-119950000D03*
X94615000Y-119950000D03*
X95885000Y-119950000D03*
X97155000Y-119950000D03*
X98425000Y-119950000D03*
X98425000Y-115000000D03*
X97155000Y-115000000D03*
X95885000Y-115000000D03*
X94615000Y-115000000D03*
X93345000Y-115000000D03*
X92075000Y-115000000D03*
X90805000Y-115000000D03*
D20*
X212150000Y-131350000D03*
X210450000Y-131350000D03*
D17*
X232850000Y-96250000D03*
X230950000Y-96250000D03*
D19*
X76835000Y-79375000D03*
X76835000Y-81075000D03*
D25*
X190627000Y-71902500D03*
X189357000Y-71902500D03*
X188087000Y-71902500D03*
X186817000Y-71902500D03*
D26*
X185064500Y-73660000D03*
X185064500Y-74930000D03*
X185064500Y-76200000D03*
X185064500Y-77470000D03*
X185064500Y-78740000D03*
X185064500Y-80010000D03*
X185064500Y-81280000D03*
X185064500Y-82550000D03*
X185064500Y-83820000D03*
D25*
X186817000Y-85577500D03*
X188087000Y-85577500D03*
X189357000Y-85577500D03*
X190627000Y-85577500D03*
X191897000Y-85577500D03*
X193167000Y-85577500D03*
X194437000Y-85577500D03*
D26*
X196189500Y-83820000D03*
X196189500Y-82550000D03*
X196189500Y-81280000D03*
X196189500Y-80010000D03*
X196189500Y-78740000D03*
X196189500Y-77470000D03*
X196189500Y-76200000D03*
X196189500Y-74930000D03*
X196189500Y-73660000D03*
D25*
X194437000Y-71902500D03*
X193167000Y-71902500D03*
X191897000Y-71902500D03*
D19*
X88900000Y-79375000D03*
X88900000Y-81075000D03*
X88900000Y-88265000D03*
X88900000Y-89965000D03*
D20*
X102870000Y-105664000D03*
X101170000Y-105664000D03*
X102870000Y-90551000D03*
X101170000Y-90551000D03*
X133350000Y-60071000D03*
X131650000Y-60071000D03*
X148590000Y-60071000D03*
X146890000Y-60071000D03*
X148590000Y-75311000D03*
X146890000Y-75311000D03*
X133350000Y-75311000D03*
X131650000Y-75311000D03*
X102870000Y-60071000D03*
X101170000Y-60071000D03*
X118110000Y-60071000D03*
X116410000Y-60071000D03*
X102870000Y-44831000D03*
X101170000Y-44831000D03*
X118110000Y-44831000D03*
X116410000Y-44831000D03*
X133350000Y-44831000D03*
X131650000Y-44831000D03*
D17*
X77150000Y-119507000D03*
X75250000Y-119507000D03*
D11*
X78740000Y-75500000D03*
X80010000Y-75500000D03*
X81280000Y-75500000D03*
X82550000Y-75500000D03*
X83820000Y-75500000D03*
X85090000Y-75500000D03*
X86360000Y-75500000D03*
X86360000Y-70550000D03*
X85090000Y-70550000D03*
X83820000Y-70550000D03*
X82550000Y-70550000D03*
X81280000Y-70550000D03*
X80010000Y-70550000D03*
X78740000Y-70550000D03*
D10*
X76835000Y-94930000D03*
X76835000Y-93030000D03*
D21*
X102870000Y-71960000D03*
X104140000Y-71960000D03*
X105410000Y-71960000D03*
X106680000Y-71960000D03*
X107950000Y-71960000D03*
X109220000Y-71960000D03*
X110490000Y-71960000D03*
X111760000Y-71960000D03*
X113030000Y-71960000D03*
X114300000Y-71960000D03*
X114300000Y-62660000D03*
X113030000Y-62660000D03*
X111760000Y-62660000D03*
X110490000Y-62660000D03*
X109220000Y-62660000D03*
X107950000Y-62660000D03*
X106680000Y-62660000D03*
X105410000Y-62660000D03*
X104140000Y-62660000D03*
X102870000Y-62660000D03*
D11*
X90805000Y-93280000D03*
X92075000Y-93280000D03*
X93345000Y-93280000D03*
X94615000Y-93280000D03*
X95885000Y-93280000D03*
X97155000Y-93280000D03*
X98425000Y-93280000D03*
X98425000Y-88330000D03*
X97155000Y-88330000D03*
X95885000Y-88330000D03*
X94615000Y-88330000D03*
X93345000Y-88330000D03*
X92075000Y-88330000D03*
X90805000Y-88330000D03*
D21*
X118110000Y-71960000D03*
X119380000Y-71960000D03*
X120650000Y-71960000D03*
X121920000Y-71960000D03*
X123190000Y-71960000D03*
X124460000Y-71960000D03*
X125730000Y-71960000D03*
X127000000Y-71960000D03*
X128270000Y-71960000D03*
X129540000Y-71960000D03*
X129540000Y-62660000D03*
X128270000Y-62660000D03*
X127000000Y-62660000D03*
X125730000Y-62660000D03*
X124460000Y-62660000D03*
X123190000Y-62660000D03*
X121920000Y-62660000D03*
X120650000Y-62660000D03*
X119380000Y-62660000D03*
X118110000Y-62660000D03*
D27*
X231875000Y-111150000D03*
X231875000Y-110500000D03*
X231875000Y-109850000D03*
X231875000Y-109200000D03*
X231875000Y-108550000D03*
D28*
X234525000Y-110650000D03*
X234525000Y-109050000D03*
D19*
X201422000Y-91440000D03*
X201422000Y-93140000D03*
D21*
X148590000Y-56720000D03*
X149860000Y-56720000D03*
X151130000Y-56720000D03*
X152400000Y-56720000D03*
X153670000Y-56720000D03*
X154940000Y-56720000D03*
X156210000Y-56720000D03*
X157480000Y-56720000D03*
X158750000Y-56720000D03*
X160020000Y-56720000D03*
X160020000Y-47420000D03*
X158750000Y-47420000D03*
X157480000Y-47420000D03*
X156210000Y-47420000D03*
X154940000Y-47420000D03*
X153670000Y-47420000D03*
X152400000Y-47420000D03*
X151130000Y-47420000D03*
X149860000Y-47420000D03*
X148590000Y-47420000D03*
X133350000Y-56720000D03*
X134620000Y-56720000D03*
X135890000Y-56720000D03*
X137160000Y-56720000D03*
X138430000Y-56720000D03*
X139700000Y-56720000D03*
X140970000Y-56720000D03*
X142240000Y-56720000D03*
X143510000Y-56720000D03*
X144780000Y-56720000D03*
X144780000Y-47420000D03*
X143510000Y-47420000D03*
X142240000Y-47420000D03*
X140970000Y-47420000D03*
X139700000Y-47420000D03*
X138430000Y-47420000D03*
X137160000Y-47420000D03*
X135890000Y-47420000D03*
X134620000Y-47420000D03*
X133350000Y-47420000D03*
X118110000Y-56720000D03*
X119380000Y-56720000D03*
X120650000Y-56720000D03*
X121920000Y-56720000D03*
X123190000Y-56720000D03*
X124460000Y-56720000D03*
X125730000Y-56720000D03*
X127000000Y-56720000D03*
X128270000Y-56720000D03*
X129540000Y-56720000D03*
X129540000Y-47420000D03*
X128270000Y-47420000D03*
X127000000Y-47420000D03*
X125730000Y-47420000D03*
X124460000Y-47420000D03*
X123190000Y-47420000D03*
X121920000Y-47420000D03*
X120650000Y-47420000D03*
X119380000Y-47420000D03*
X118110000Y-47420000D03*
X102870000Y-56720000D03*
X104140000Y-56720000D03*
X105410000Y-56720000D03*
X106680000Y-56720000D03*
X107950000Y-56720000D03*
X109220000Y-56720000D03*
X110490000Y-56720000D03*
X111760000Y-56720000D03*
X113030000Y-56720000D03*
X114300000Y-56720000D03*
X114300000Y-47420000D03*
X113030000Y-47420000D03*
X111760000Y-47420000D03*
X110490000Y-47420000D03*
X109220000Y-47420000D03*
X107950000Y-47420000D03*
X106680000Y-47420000D03*
X105410000Y-47420000D03*
X104140000Y-47420000D03*
X102870000Y-47420000D03*
X148590000Y-71960000D03*
X149860000Y-71960000D03*
X151130000Y-71960000D03*
X152400000Y-71960000D03*
X153670000Y-71960000D03*
X154940000Y-71960000D03*
X156210000Y-71960000D03*
X157480000Y-71960000D03*
X158750000Y-71960000D03*
X160020000Y-71960000D03*
X160020000Y-62660000D03*
X158750000Y-62660000D03*
X157480000Y-62660000D03*
X156210000Y-62660000D03*
X154940000Y-62660000D03*
X153670000Y-62660000D03*
X152400000Y-62660000D03*
X151130000Y-62660000D03*
X149860000Y-62660000D03*
X148590000Y-62660000D03*
D17*
X232850000Y-89650000D03*
X230950000Y-89650000D03*
D29*
X225171000Y-49535000D03*
X225171000Y-51435000D03*
X225171000Y-57912000D03*
X225171000Y-59812000D03*
D16*
X230950000Y-87650000D03*
X232850000Y-87650000D03*
D10*
X225171000Y-56383000D03*
X225171000Y-54483000D03*
D16*
X230950000Y-85650000D03*
X232850000Y-85650000D03*
D10*
X219200000Y-57450000D03*
X219200000Y-55550000D03*
X213200000Y-57450000D03*
X213200000Y-55550000D03*
X217200000Y-57450000D03*
X217200000Y-55550000D03*
X215200000Y-57450000D03*
X215200000Y-55550000D03*
D17*
X245908000Y-74275000D03*
X244008000Y-74275000D03*
D10*
X72300000Y-121400000D03*
X72300000Y-119500000D03*
D16*
X250808000Y-74275000D03*
X252708000Y-74275000D03*
D20*
X232750000Y-79650000D03*
X231050000Y-79650000D03*
D10*
X221742000Y-104643000D03*
X221742000Y-102743000D03*
X209614000Y-95650000D03*
X209614000Y-93750000D03*
X215214000Y-95650000D03*
X215214000Y-93750000D03*
X225171000Y-66647000D03*
X225171000Y-64747000D03*
D17*
X232850000Y-94250000D03*
X230950000Y-94250000D03*
D16*
X230950000Y-91650000D03*
X232850000Y-91650000D03*
D29*
X219710000Y-102743000D03*
X219710000Y-104643000D03*
D30*
X210150000Y-128350000D03*
D31*
X212450000Y-122050000D03*
D30*
X212450000Y-128350000D03*
X214750000Y-128350000D03*
D16*
X230950000Y-83650000D03*
X232850000Y-83650000D03*
D17*
X249308000Y-74275000D03*
X247408000Y-74275000D03*
D32*
X72300000Y-126600000D03*
X72300000Y-128500000D03*
X74400000Y-127550000D03*
X72300000Y-123000000D03*
X72300000Y-124900000D03*
X74400000Y-123950000D03*
D33*
X211464000Y-99750000D03*
X213364000Y-99750000D03*
X212414000Y-97650000D03*
D34*
X207764000Y-93650000D03*
X205864000Y-93650000D03*
X206814000Y-95750000D03*
X213364000Y-93650000D03*
X211464000Y-93650000D03*
X212414000Y-95750000D03*
D35*
X208500000Y-52850000D03*
X209600000Y-52850000D03*
X210700000Y-52850000D03*
X211800000Y-52850000D03*
X212900000Y-52850000D03*
X214000000Y-52850000D03*
X215100000Y-52850000D03*
X216200000Y-52850000D03*
X217300000Y-52850000D03*
D36*
X203850000Y-51850000D03*
D37*
X218450000Y-42250000D03*
X202950000Y-42250000D03*
D38*
X218500000Y-51850000D03*
D19*
X210058000Y-110363000D03*
X210058000Y-112063000D03*
D21*
X148590000Y-87200000D03*
X149860000Y-87200000D03*
X151130000Y-87200000D03*
X152400000Y-87200000D03*
X153670000Y-87200000D03*
X154940000Y-87200000D03*
X156210000Y-87200000D03*
X157480000Y-87200000D03*
X158750000Y-87200000D03*
X160020000Y-87200000D03*
X160020000Y-77900000D03*
X158750000Y-77900000D03*
X157480000Y-77900000D03*
X156210000Y-77900000D03*
X154940000Y-77900000D03*
X153670000Y-77900000D03*
X152400000Y-77900000D03*
X151130000Y-77900000D03*
X149860000Y-77900000D03*
X148590000Y-77900000D03*
D11*
X167640000Y-124395000D03*
X168910000Y-124395000D03*
X170180000Y-124395000D03*
X171450000Y-124395000D03*
X172720000Y-124395000D03*
X173990000Y-124395000D03*
X175260000Y-124395000D03*
X175260000Y-119445000D03*
X173990000Y-119445000D03*
X172720000Y-119445000D03*
X171450000Y-119445000D03*
X170180000Y-119445000D03*
X168910000Y-119445000D03*
X167640000Y-119445000D03*
X90805000Y-110995000D03*
X92075000Y-110995000D03*
X93345000Y-110995000D03*
X94615000Y-110995000D03*
X95885000Y-110995000D03*
X97155000Y-110995000D03*
X98425000Y-110995000D03*
X98425000Y-106045000D03*
X97155000Y-106045000D03*
X95885000Y-106045000D03*
X94615000Y-106045000D03*
X93345000Y-106045000D03*
X92075000Y-106045000D03*
X90805000Y-106045000D03*
D21*
X133350000Y-117680000D03*
X134620000Y-117680000D03*
X135890000Y-117680000D03*
X137160000Y-117680000D03*
X138430000Y-117680000D03*
X139700000Y-117680000D03*
X140970000Y-117680000D03*
X142240000Y-117680000D03*
X143510000Y-117680000D03*
X144780000Y-117680000D03*
X144780000Y-108380000D03*
X143510000Y-108380000D03*
X142240000Y-108380000D03*
X140970000Y-108380000D03*
X139700000Y-108380000D03*
X138430000Y-108380000D03*
X137160000Y-108380000D03*
X135890000Y-108380000D03*
X134620000Y-108380000D03*
X133350000Y-108380000D03*
X163830000Y-102440000D03*
X165100000Y-102440000D03*
X166370000Y-102440000D03*
X167640000Y-102440000D03*
X168910000Y-102440000D03*
X170180000Y-102440000D03*
X171450000Y-102440000D03*
X172720000Y-102440000D03*
X173990000Y-102440000D03*
X175260000Y-102440000D03*
X175260000Y-93140000D03*
X173990000Y-93140000D03*
X172720000Y-93140000D03*
X171450000Y-93140000D03*
X170180000Y-93140000D03*
X168910000Y-93140000D03*
X167640000Y-93140000D03*
X166370000Y-93140000D03*
X165100000Y-93140000D03*
X163830000Y-93140000D03*
X148590000Y-102440000D03*
X149860000Y-102440000D03*
X151130000Y-102440000D03*
X152400000Y-102440000D03*
X153670000Y-102440000D03*
X154940000Y-102440000D03*
X156210000Y-102440000D03*
X157480000Y-102440000D03*
X158750000Y-102440000D03*
X160020000Y-102440000D03*
X160020000Y-93140000D03*
X158750000Y-93140000D03*
X157480000Y-93140000D03*
X156210000Y-93140000D03*
X154940000Y-93140000D03*
X153670000Y-93140000D03*
X152400000Y-93140000D03*
X151130000Y-93140000D03*
X149860000Y-93140000D03*
X148590000Y-93140000D03*
D29*
X175895000Y-59055000D03*
X175895000Y-60955000D03*
D10*
X172085000Y-74991000D03*
X172085000Y-73091000D03*
D17*
X81021000Y-64643000D03*
X79121000Y-64643000D03*
D10*
X210439000Y-91562000D03*
X210439000Y-89662000D03*
D29*
X206375000Y-89662000D03*
X206375000Y-91562000D03*
D10*
X208407000Y-91562000D03*
X208407000Y-89662000D03*
D29*
X100838000Y-93091000D03*
X100838000Y-94991000D03*
M02*
